<?xml version="1.0" encoding="utf-8"?>
<!-- Generator: Adobe Illustrator 27.5.0, SVG Export Plug-In . SVG Version: 6.00 Build 0)  -->
<svg version="1.1" id="Layer_1" xmlns="http://www.w3.org/2000/svg" xmlns:xlink="http://www.w3.org/1999/xlink" x="0px" y="0px"
	 viewBox="0 0 640 640" style="enable-background:new 0 0 640 640;" xml:space="preserve">
<style type="text/css">
	.st0{fill:none;stroke:#FFFFFF;stroke-width:2;stroke-miterlimit:10;}
</style>
<rect width="640" height="640"/>
<path class="st0" d="M0,85.3c0,0,3-0.3,5.5-0.4s4.5,0,6.5,0s4-0.1,6-0.1c2,0,4,0,6-0.1c2,0,4-0.1,6-0.1c2,0,4,0.1,6,0.1
	c2,0.1,4,0.1,6,0.1c2,0,4,0.1,6-0.4s4-1.6,6-2.1c2-0.5,4-0.6,6-0.1s4,1.4,6,1.7c2,0.3,4-0.2,6-0.7s4-1.2,6-0.9c2,0.3,4,1.4,6,2.1
	c2,0.6,4,0.8,6-0.2s4-3,6-4c2-1.1,4-1.1,6-0.8c2,0.3,4,1,6,1.1s4-0.5,6-1.1c2-0.6,4-1.2,6-1.5c2-0.2,4,0,6,0c2,0,4-0.2,6,0
	c2,0.2,4,0.9,6,1s4-0.3,6-0.4c2-0.1,4,0.1,6,0.2c2,0.1,4,0,6,0.9c2,0.9,4,2.7,6,2c2-0.7,4-3.8,6-5.1c2-1.3,4-0.9,6-0.9
	c2,0,4-0.5,6-0.6s4,0,6,0.1c2,0.1,4,0.3,6,1.4c2,1.1,4,3.1,6,4.6c2,1.4,4,2.2,6,2.4c2,0.2,4-0.2,6-0.4c2-0.2,4-0.2,6-1.5
	c2-1.3,4-4,6-4.9c2-0.9,4,0,6,0.2c2,0.1,4-0.6,6-1c2-0.5,4-0.8,6,0.3s4,3.4,6,4.9c2,1.6,4,2.4,6,1.6c2-0.8,4-3.3,6-4.7
	c2-1.4,4-1.8,6-2.1c2-0.3,4-0.4,6-0.4c2,0,4,0.1,6,1.6s4,4.3,6,4.3c2-0.1,4-3.1,6-2.9c2,0.1,4,3.4,6,4.9c2,1.6,4,1.4,6,1.5
	c2,0,4,0.2,6.5,0.2c8.6,0.1,17.1-0.1,25.6-0.3c2-0.1,4-0.1,6,0c2,0.1,4,0.3,6,0.3c2,0,4-0.2,6-0.2c2,0,4,0.1,6,0.1s4-0.2,6-0.5
	c2-0.4,4-0.9,6-1.1c2-0.2,4,0,6,0c2,0,4-0.1,6-0.5s4-1,6-0.7c2,0.3,4,1.4,6,2c2,0.6,4,0.7,6,0c2-0.7,4-2.3,6-3c2-0.7,4-0.7,6-0.8
	c2-0.1,4-0.3,6,0.5c2,0.7,4,2.3,6,2.6c2,0.3,4-0.8,6-1.9c2-1.1,4-2.1,6-2.6c2-0.4,4-0.3,6,0.6c2,0.9,4,2.7,6,3.6c2,0.9,4,1.1,6-0.1
	c2-1.2,4-3.9,6-5.5s4-2,6-2.3c2-0.2,4-0.2,6,0c2,0.2,4,0.7,6,1.1c2,0.3,4,0.6,6,1.3c2,0.7,4,2,6,1.9c2-0.1,4-1.6,6-1
	c2,0.6,4,3.3,6,3.7c2,0.4,4-1.5,6-2.7c2-1.2,4-1.8,6-0.6c2,1.1,4,4,6,4.6c2,0.6,4-1,6-1.2c2-0.2,4,1,6,1.2c2,0.2,4-0.6,6-0.8
	c2-0.2,4,0.2,6,0.7c2,0.5,4,1.2,6,1.6c2,0.4,4,0.5,6,0.6s4,0,6-0.1s4-0.4,6-0.5c2-0.1,4-0.1,6-0.1c2,0,4,0,6,0.1c2,0.1,4,0.4,6,0.5
	c2,0,4-0.2,6-0.2s4,0.1,6,0.1c2,0,4-0.1,6-0.2c2-0.1,4-0.1,6,0c2,0.1,4,0.2,6,0.2c2,0,4-0.1,6-0.1c2,0,4,0.1,6.5,0
	c2.5,0,5.5-0.2,11.5-0.3"/>
<path class="st0" d="M0,72.5c0,0,3-0.5,5.5-0.7C8,71.5,10,71.5,12,71.5c2,0,4,0,6,0s4,0.1,6,0.2c2,0.1,4,0.3,6,0.1s4-0.7,6-0.7
	c2,0,4,0.4,6,0.2c2-0.2,4-1,6-0.9c2,0.1,4,1.1,6,1.4c2,0.3,4-0.2,6-0.9s4-1.6,6-2c2-0.5,4-0.5,6-0.6s4-0.2,6-0.3s4-0.2,6-0.3
	c2-0.1,4-0.2,6-0.5s4-0.6,6-0.8c2-0.2,4-0.2,6-0.3c2-0.1,4-0.3,6,0.3c2,0.6,4,2,6,3.2c2,1.1,4,2,6,1.9s4-1.3,6-1.7
	c2-0.4,4-0.1,6-0.8c2-0.8,4-2.6,6-2.5s4,2.1,6,1.7c2-0.3,4-2.9,6-3.6c2-0.7,4,0.6,6,0.5c2-0.1,4-1.4,6-1c2,0.4,4,2.6,6,4.1
	c2,1.5,4,2.3,6,2.7c2,0.4,4,0.4,6-0.9c2-1.3,4-4,6-5.4c2-1.4,4-1.6,6-1.6c2,0,4,0.2,6,1.6c2,1.4,4,4.1,6,5.4c2,1.3,4,1.3,6,1.1
	c2-0.2,4-0.6,6-2c2-1.4,4-3.9,6-3.5c2,0.4,4,3.7,6,4.3c2,0.7,4-1.3,6-2.7c2-1.4,4-2.3,6-2.9s4-0.8,6-0.8c2,0,4,0.2,6,0.6
	c2,0.4,4,1,6,1.6c2,0.6,4,1.3,6,0.9c2-0.4,4-1.9,6-1.3c2,0.6,4,3.3,6,3.5c2,0.2,4-1.9,6-2.9c2-0.9,4-0.6,6,0.6c2,1.2,4,3.3,6,4.3
	c2,1,4,0.9,6,0.9c2,0,4,0.1,6.5,0.1c10.5,0.2,21.2-0.8,31.6-0.2c2,0.1,4,0.3,6,0.4c2,0,4-0.2,6-0.4c2-0.2,4-0.4,6-0.3
	c2,0.1,4,0.3,6,0.5c2,0.2,4,0.3,6-0.2c2-0.5,4-1.5,6-1.5c2,0,4,1.2,6,1.5s4-0.2,6-0.2c2,0,4,0.5,6,0.1c2-0.4,4-1.8,6-2.6
	c2-0.8,4-1.2,6-0.5c2,0.7,4,2.4,6,2.1c2-0.2,4-2.3,6-3.4c2-1.1,4-1.2,6-0.1c2,1.1,4,3.3,6,3.2c2-0.1,4-2.4,6-2.9c2-0.5,4,1,6,0.8
	c2-0.2,4-2.1,6-2.6c2-0.5,4,0.3,6,0.7c2,0.4,4,0.4,6,0.8c2,0.4,4,1.1,6,0.7c2-0.4,4-2.1,6-3.2c2-1.1,4-1.8,6-2.1c2-0.3,4-0.2,6,0.3
	c2,0.5,4,1.3,6,1.4c2,0.2,4-0.3,6-0.3c2,0,4,0.5,6,1.1c2,0.6,4,1.2,6,0.7c2-0.5,4-2,6-2.6c2-0.6,4-0.1,6-0.2s4-0.5,6-0.7s4,0,6,0
	s4-0.1,6,0.3c2,0.4,4,1.3,6,3c2,1.6,4,4,6,5.1c2,1.1,4,1.1,6,1.2s4,0.3,6,0.3c2,0,4-0.1,6-0.1s4,0.2,6,0.1c2,0,4-0.2,6-0.2
	c2,0,4,0.2,6,0.2c2,0,4-0.3,6-0.3s4,0.1,6,0s4-0.2,6-0.3s4,0.1,6,0.1c2,0,4-0.1,6-0.1c2,0,4,0,6,0.1c2,0.1,4,0.2,6.5,0.2
	c2.5-0.1,5.5-0.3,11.5-0.4"/>
<path class="st0" d="M0,59.7c0,0,3-0.4,5.5-0.5c2.5-0.1,4.5,0,6.5,0c2,0,4-0.2,6-0.3s4,0,6,0s4,0,6,0.1s4,0.4,6,0.3
	c2-0.1,4-0.6,6-0.8c2-0.3,4-0.3,6,0c2,0.2,4,0.7,6,0.4c2-0.3,4-1.5,6-2.1c2-0.6,4-0.7,6-0.4c2,0.3,4,0.8,6,1.2s4,0.5,6,0.3
	c2-0.3,4-1,6-1.6c2-0.6,4-1.2,6-1.1c2,0,4,0.6,6,0.7c2,0.1,4-0.4,6-0.5s4,0,6,0s4-0.2,6-0.9c2-0.6,4-1.6,6-1.8s4,0.3,6,0.4
	c2,0.1,4-0.3,6-0.3c2,0,4,0.3,6,0.1c2-0.2,4-0.8,6,0.3c2,1.1,4,3.8,6,4.1c2,0.3,4-2,6-2c2,0,4,2.2,6,1.6c2-0.6,4-4.1,6-4.5
	c2-0.4,4,2.3,6,2.6c2,0.3,4-1.7,6-2.4c2-0.7,4-0.2,6,0.1c2,0.3,4,0.3,6-0.3c2-0.6,4-1.9,6-0.8c2,1.1,4,4.7,6,5.3c2,0.6,4-1.7,6-2.3
	c2-0.6,4,0.5,6,0.8c2,0.3,4,0,6,0c2,0,4,0.4,6,1c2,0.6,4,1.4,6,0.7c2-0.7,4-2.9,6-3.6s4-0.1,6,0.9c2,1.1,4,2.6,6,2.1
	c2-0.6,4-3.2,6-4.8s4-2,6-2.2c2-0.2,4-0.2,6,0.9c2,1.1,4,3.4,6,3.6s4-1.7,6-1.5c2,0.2,4,2.5,6,3.8c2,1.4,4,1.9,6,2.3
	c2,0.4,4,0.7,6,0.8c2,0.1,4,0,6.5-0.2c16.4-1.2,33.3-0.7,49.7-0.8c2,0,4,0.1,6,0c2-0.2,4-0.7,6-1.1c2-0.4,4-0.7,6-0.7
	c2,0,4,0.3,6,0.2c2-0.1,4-0.5,6-0.4c2,0.1,4,0.8,6,1.3c2,0.5,4,0.9,6,0.8c2-0.1,4-0.7,6-0.6c2,0.1,4,1,6,0.4c2-0.6,4-2.5,6-3.7
	c2-1.1,4-1.4,6-0.4c2,1,4,3.2,6,3.2c2-0.1,4-2.5,6-2.9c2-0.5,4,1,6,1.7c2,0.6,4,0.4,6-0.9c2-1.3,4-3.7,6-3.5c2,0.2,4,2.8,6,3.3
	s4-1.3,6-2.4c2-1.1,4-1.6,6-1.5c2,0.2,4,0.9,6,1.3c2,0.4,4,0.4,6,1.5c2,1.1,4,3.4,6,2.9c2-0.5,4-3.8,6-4.9c2-1.1,4-0.2,6,0.9
	c2,1,4,2.1,6,1.5c2-0.6,4-3,6-4.1c2-1.2,4-1.2,6-0.5s4,1.9,6,3.3c2,1.4,4,2.8,6,3.6s4,0.7,6,0.2c2-0.6,4-1.7,6-1.4c2,0.3,4,2,6,2.9
	c2,0.8,4,0.8,6,0.8s4,0.3,6,0.3s4-0.3,6-0.4c2-0.1,4-0.1,6-0.1c2,0,4,0.1,6,0.3c2,0.2,4,0.4,6,0.3c2,0,4-0.3,6-0.3s4,0.1,6,0.1
	c2,0,4-0.1,6-0.1c2,0,4,0.2,6,0.2c2,0,4-0.2,6-0.2c2,0.1,4,0.4,6,0.4c2,0.1,4,0,6.5-0.2c2.5-0.2,5.5-0.5,11.5,0.4"/>
<path class="st0" d="M0,46.9c0,0,3-0.3,5.5-0.5C8,46.3,10,46.2,12,46.1s4-0.1,6,0s4,0.2,6,0.2c2,0,4,0,6-0.3s4-0.8,6-0.7
	c2,0.1,4,0.7,6,0.8c2,0.1,4-0.3,6-0.3s4,0.6,6,0.3c2-0.4,4-1.7,6-2.3s4-0.4,6-0.2c2,0.2,4,0.4,6,0.9c2,0.5,4,1.3,6,1.2s4-1.2,6-1.1
	c2,0.1,4,1.3,6,1.4c2,0.1,4-0.9,6-1.5c2-0.6,4-0.8,6-1c2-0.2,4-0.4,6,0.2c2,0.6,4,2,6,1.6c2-0.4,4-2.8,6-2.8s4,2.3,6,2.2
	c2-0.1,4-2.7,6-3.8c2-1.1,4-0.9,6-1.2c2-0.3,4-1.2,6-1.2c2,0.1,4,1.1,6,1.3c2,0.2,4-0.4,6-0.6c2-0.2,4-0.1,6-0.5c2-0.4,4-1.4,6-0.9
	c2,0.5,4,2.4,6,2.8c2,0.3,4-0.9,6-0.7s4,1.8,6,2.8c2,1,4,1.4,6,0.3c2-1.1,4-3.7,6-4.6s4-0.1,6,1c2,1.1,4,2.5,6,2.3
	c2-0.1,4-1.8,6-2.9c2-1.1,4-1.6,6-1.2c2,0.4,4,1.9,6,2.2c2,0.3,4-0.6,6-1.4c2-0.8,4-1.4,6-1.3s4,1,6,1.7c2,0.6,4,0.9,6,0.9
	c2,0,4-0.3,6,0.6s4,3.1,6,3.8c2,0.7,4-0.1,6-1.5c2-1.3,4-3.2,6-3.2s4,1.9,6,1.8c2-0.1,4-2.1,6-1.6c2,0.5,4,3.6,6,5.1s4,1.4,6,1.4
	c2,0,4,0.2,6.5,0.1c10.5-0.3,21.2-0.6,31.6,0c2,0.1,4,0.2,6,0.2c2,0,4-0.2,6-0.3c2-0.1,4-0.2,6-0.5s4-0.9,6-1c2-0.1,4,0.4,6,0.3
	c2-0.1,4-0.8,6-1c2-0.2,4,0.1,6,0.1c2,0,4-0.3,6-0.6c2-0.3,4-0.7,6-1c2-0.3,4-0.4,6,0.1c2,0.5,4,1.7,6,2.5c2,0.8,4,1.4,6,1.2
	c2-0.1,4-0.8,6-1.1c2-0.2,4,0,6-0.3c2-0.3,4-1.3,6-2.2c2-1,4-2,6-2.1c2-0.2,4,0.5,6,0.4c2-0.1,4-1.1,6-1.8c2-0.7,4-1.1,6-1.3
	c2-0.2,4-0.2,6-0.4s4-0.7,6-0.7c2,0,4,0.5,6,0.8c2,0.3,4,0.6,6,1.7c2,1.1,4,3.2,6,4.4c2,1.2,4,1.6,6,1.8c2,0.2,4,0.2,6-1.1
	c2-1.3,4-4,6-4.4c2-0.4,4,1.5,6,2c2,0.6,4-0.2,6-1c2-0.8,4-1.7,6-1.9s4,0.4,6,0.3s4-0.9,6-0.2c2,0.7,4,3,6,3.9c2,0.9,4,0.5,6,0.8
	c2,0.3,4,1.2,6,1.6c2,0.5,4,0.5,6,0.6c2,0.1,4,0.2,6,0.2c2,0,4-0.2,6-0.3s4-0.1,6-0.1c2,0,4,0.1,6,0.3c2,0.1,4,0.3,6,0.3
	c2,0,4-0.3,6-0.4s4-0.1,6-0.1c2,0,4,0.1,6,0.1c2,0.1,4,0.1,6,0.1c2,0,4-0.1,6,0c2,0.1,4,0.4,6,0.5c2,0.1,4,0.1,6.5-0.1
	c2.5-0.2,5.5-0.6,11.5,0.3"/>
<path class="st0" d="M0,34.1c0,0,3-0.5,5.5-0.7C8,33.1,10,33.1,12,33.2c2,0,4,0,6,0.1c2,0,4,0.1,6,0.2c2,0.1,4,0.3,6,0.1
	s4-0.7,6-1.1c2-0.4,4-0.8,6-0.6c2,0.2,4,0.8,6,0.9s4-0.3,6-0.7c2-0.4,4-0.9,6-0.9c2,0,4,0.5,6,0.4c2-0.1,4-0.8,6-1.2s4-0.5,6-0.1
	s4,1.2,6,1.1c2-0.1,4-1.2,6-1.7s4-0.3,6-0.3c2,0,4-0.1,6,0s4,0.4,6,0.1c2-0.3,4-1.2,6-0.5c2,0.7,4,3,6,3.6s4-0.6,6-0.9
	c2-0.3,4,0.2,6,0.4c2,0.1,4-0.1,6-0.7c2-0.6,4-1.7,6-1.8c2-0.1,4,0.6,6,0c2-0.6,4-2.4,6-3c2-0.6,4,0.1,6,0.4c2,0.2,4-0.1,6-0.7
	c2-0.6,4-1.5,6-1.5c2,0,4,0.9,6,1.4c2,0.5,4,0.5,6,0.3c2-0.1,4-0.4,6,0.5c2,0.9,4,2.9,6,2.7c2-0.2,4-2.7,6-3.9c2-1.3,4-1.4,6-1.4
	c2,0,4,0.1,6,0.4c2,0.3,4,0.7,6,1.3c2,0.7,4,1.6,6,1.7c2,0.1,4-0.5,6-0.1c2,0.4,4,1.7,6,1.3c2-0.5,4-2.7,6-3.8c2-1.1,4-1,6,0.1
	c2,1.1,4,3.3,6,4.1s4,0,6-1.2c2-1.1,4-2.7,6-3.4c2-0.7,4-0.6,6-0.6c2,0,4,0,6,1.1c2,1.1,4,3.3,6,4.9c2,1.6,4,2.6,6,3.2
	c2,0.6,4,0.8,6,0.8c2,0,4-0.1,6.5-0.3c8.4-0.7,17.1-0.3,25.6-0.5c2,0,4,0,6,0.1c2,0.1,4,0.4,6,0.4c2,0,4-0.2,6-0.4
	c2-0.2,4-0.4,6-0.5s4-0.4,6-0.7c2-0.3,4-0.6,6-0.8c2-0.2,4-0.4,6-0.5c2-0.2,4-0.3,6-0.3c2,0,4,0.2,6,0.2c2,0.1,4,0,6-0.2
	c2-0.2,4-0.6,6-0.2c2,0.5,4,1.8,6,2.6c2,0.8,4,1.1,6,0.2c2-0.8,4-2.7,6-3.8c2-1.1,4-1.2,6-0.3c2,1,4,3.1,6,2.9c2-0.2,4-2.6,6-3
	c2-0.5,4,1,6,0.9c2-0.2,4-2.1,6-2.4c2-0.3,4,0.8,6,0.6c2-0.2,4-1.9,6-2.7c2-0.7,4-0.6,6,0.7c2,1.2,4,3.5,6,3.2c2-0.2,4-3,6-2.8
	c2,0.2,4,3.3,6,3.4c2,0.1,4-2.9,6-4.3c2-1.3,4-1,6-1.1c2,0,4-0.5,6,0.3c2,0.7,4,2.6,6,4.2c2,1.5,4,2.7,6,2.9c2,0.2,4-0.6,6-1.2
	c2-0.6,4-1,6-1.3c2-0.4,4-0.7,6-0.7s4,0.4,6,0c2-0.3,4-1.3,6-0.6c2,0.7,4,3.2,6,4.3c2,1.2,4,1,6,1c2,0,4,0.1,6,0.2s4,0,6-0.1
	s4-0.2,6-0.2c2,0,4,0.1,6,0.2c2,0.1,4,0.3,6,0.3c2,0,4-0.3,6-0.3c2,0,4,0.1,6,0.1c2,0,4-0.2,6-0.2s4,0.2,6,0.3c2,0.1,4,0,6,0
	c2-0.1,4-0.2,6-0.2c2,0,4,0.2,6.5,0.1c2.5-0.1,5.5-0.4,11.5,0.5"/>
<path class="st0" d="M0,341.3c0,0,3-0.5,5.5-0.7c2.5-0.2,4.5-0.2,6.5-0.1s4,0.2,6,0.3s4,0.1,6,0s4-0.1,6-0.4c2-0.3,4-0.7,6-0.7
	c2,0,4,0.4,6,0.2c2-0.2,4-1,6-1.4c2-0.4,4-0.5,6,0c2,0.5,4,1.7,6,2s4,0,6-0.2c2-0.2,4-0.1,6-0.1s4-0.2,6-1.3c2-1.1,4-3.2,6-4
	c2-0.7,4-0.1,6-0.4s4-1.7,6-0.9c2,0.8,4,3.6,6,4.5c2,0.8,4-0.3,6-1.4c2-1.1,4-2.1,6-1.7c2,0.4,4,2.2,6,3s4,0.9,6,1.3
	c2,0.4,4,1.2,6,1.5c2,0.2,4-0.1,6-0.2c2-0.2,4-0.2,6-0.1c2,0.1,4,0.2,6,0.3c2,0.1,4,0,6,0c2,0,4,0.1,6,0.2c2,0.1,4,0.2,6,0.2
	c2,0,4,0,6-0.1c2-0.1,4-0.4,6-0.5c2-0.1,4-0.1,6-0.1c2,0,4,0.2,6,0.3c2,0.2,4,0.4,6,0.3c2,0,4-0.3,6-0.3c2-0.1,4,0.1,6,0.1
	c2,0,4-0.2,6-0.2c2-0.1,4-0.1,6-0.1c2,0,4,0,6,0c2,0,4,0,6,0.2c2,0.1,4,0.3,6,0.3c2,0,4-0.3,6-0.3c2,0,4,0.3,6,0.3c2,0,4-0.1,6-0.2
	s4,0.2,6,0.1c2,0,4-0.2,6-0.2c2,0,4,0.1,6,0.1c2,0,4-0.2,6-0.2c2,0,4,0.2,6,0.3c2,0.1,4,0,6,0s4-0.2,6-0.2c2,0,4,0.2,6.5,0.2
	c8.6,0.1,17-0.3,25.6-0.4c2,0,4,0,6,0c2,0.1,4,0.2,6,0.2c2,0,4-0.1,6-0.1c2,0,4,0.1,6-0.1c2-0.3,4-1,6-1.3c2-0.3,4-0.1,6,0
	c2,0.1,4,0.1,6-0.1c2-0.2,4-0.7,6-0.5s4,0.9,6,1.2c2,0.3,4,0,6-0.1c2-0.2,4-0.2,6,0.1c2,0.3,4,1,6,1.4c2,0.4,4,0.4,6-0.5
	c2-0.9,4-2.7,6-3.3c2-0.6,4-0.1,6-0.8c2-0.7,4-2.8,6-3.9c2-1.1,4-1.2,6-0.6c2,0.7,4,2.1,6,2.1c2,0,4-1.6,6-0.6c2,1,4,4.5,6,6
	c2,1.6,4,1.3,6,1.1c2-0.2,4-0.2,6-0.1c2,0.1,4,0.2,6,0.3c2,0,4-0.1,6-0.1c2,0,4,0.2,6,0.2c2,0,4-0.1,6-0.1c2,0,4,0.2,6,0.2
	c2,0,4-0.3,6-0.4c2-0.1,4-0.1,6,0c2,0.2,4,0.5,6,0.2c2-0.3,4-1.2,6-3.2s4-5,6-6c2-1,4-0.1,6-0.4c2-0.3,4-1.9,6-2.8
	c2-0.9,4-1.2,6-0.7c2,0.5,4,1.9,6,2.6c2,0.7,4,0.8,6,1.4c2,0.6,4,1.7,6,2.3s4,0.6,6,0.1s4-1.5,6-2c2-0.6,4-0.7,6-0.7
	c2,0,4,0.1,6,0.1c2-0.1,4-0.4,6-0.5c2-0.1,4-0.1,6-0.1s4,0,6,0.3c2,0.3,4,1,6,2.7c2,1.7,4,4.3,6,5.7c2,1.4,4,1.6,6,1.7
	c2,0,4-0.1,6.5-0.2c2.5-0.1,5.5-0.2,11.5-0.6"/>
<path class="st0" d="M0,328.5c0,0,3-0.4,5.5-0.6s4.5-0.3,6.5-0.3s4,0,6,0s4,0.2,6,0.2c2,0,4-0.1,6-0.3s4-0.5,6-0.8
	c2-0.3,4-0.6,6-0.8c2-0.2,4-0.2,6-0.3s4-0.3,6-0.2c2,0.1,4,0.3,6,0.2c2-0.1,4-0.7,6-0.4c2,0.3,4,1.3,6,1.6s4-0.2,6-1.6
	c2-1.4,4-3.6,6-4.2c2-0.6,4,0.6,6,1c2,0.4,4,0.1,6-0.7c2-0.7,4-1.8,6-0.9s4,3.9,6,4s4-2.8,6-2.6c2,0.2,4,3.5,6,3.8s4-2.2,6-2.3
	c2,0,4,2.6,6,3.7c2,1.1,4,0.8,6,0.8s4,0.2,6,0.2c2,0,4-0.2,6-0.2c2,0,4,0,6,0.1c2,0,4,0,6,0.1c2,0.1,4,0.3,6,0.3c2,0,4-0.2,6-0.2
	c2-0.1,4,0,6-0.1c2-0.1,4-0.2,6-0.2c2,0,4,0.1,6,0.2c2,0.1,4,0.3,6,0.3c2,0,4-0.2,6-0.3c2,0,4,0.1,6,0.1c2,0,4-0.2,6-0.3
	c2,0,4,0.1,6,0.1c2,0.1,4,0,6,0c2,0,4-0.1,6-0.1c2,0,4,0.1,6,0.1c2,0,4,0,6,0.1c2,0.1,4,0.2,6,0.2c2,0,4-0.2,6-0.2s4,0.2,6,0.2
	c2,0,4-0.3,6-0.4c2-0.1,4,0.1,6,0.1s4-0.2,6-0.2c2,0,4,0.1,6,0.1c2,0.1,4,0.1,6,0c2,0,4-0.1,6-0.1c10.7,0.2,21.4,0.2,32.1-0.1
	c2-0.1,4,0,6,0c2,0.1,4,0.2,6,0.2c2,0,4-0.1,6-0.3c2-0.1,4-0.3,6-0.4c2-0.1,4-0.2,6-0.1c2,0.1,4,0.3,6,0.3c2-0.1,4-0.5,6-0.6
	c2-0.1,4,0.2,6,0.5s4,0.8,6,0.2c2-0.6,4-2.2,6-2.7c2-0.6,4-0.1,6,0.7c2,0.7,4,1.7,6,1.4c2-0.3,4-1.9,6-2.1c2-0.2,4,1.1,6,1.4
	c2,0.3,4-0.5,6-1.3c2-0.8,4-1.5,6-2.6c2-1.1,4-2.5,6-3c2-0.4,4,0.1,6,1.4c2,1.3,4,3.3,6,4.7c2,1.4,4,2.2,6,2.5c2,0.3,4,0,6-0.1
	s4-0.2,6-0.1c2,0,4,0.2,6,0.3c2,0.1,4,0.2,6,0.1c2-0.1,4-0.3,6-0.2c2,0,4,0.3,6,0.3c2,0,4-0.1,6-0.3c2-0.1,4-0.2,6-0.2
	c2,0.1,4,0.3,6,0.5c2,0.2,4,0.2,6-1.9c2-2.2,4-6.5,6-7.6c2-1.1,4,1.2,6,1.4c2,0.2,4-1.7,6-3s4-1.7,6-1.2c2,0.6,4,2.2,6,2.7
	c2,0.5,4-0.1,6,1.3c2,1.4,4,5,6,5.6c2,0.6,4-1.7,6-3.3s4-2.6,6-3.2c2-0.6,4-0.7,6,0.1c2,0.8,4,2.6,6,2.9c2,0.3,4-1,6-1.9
	c2-0.9,4-1.5,6-1.8s4-0.5,6,0.4c2,0.9,4,2.9,6,3.7c2,0.8,4,0.4,6,1.1c2,0.6,4,2.3,6,3.1c2,0.8,4,0.9,6,0.9c2,0.1,4,0.2,6.5,0.1
	c2.5,0,5.5-0.2,11.5,0.6"/>
<path class="st0" d="M0,315.7c0,0,3-0.3,5.5-0.5c2.5-0.2,4.5-0.4,6.5-0.4s4-0.1,6,0s4,0.2,6,0.2c2,0,4-0.1,6-0.3s4-0.3,6-0.3
	c2,0,4,0.1,6,0.1c2,0,4,0,6-0.4s4-1.1,6-1.4c2-0.4,4-0.4,6-0.4s4-0.1,6-0.1c2,0,4,0,6-0.1c2-0.1,4-0.5,6-0.1s4,1.5,6,0.7
	c2-0.8,4-3.5,6-3.5s4,2.7,6,4.2c2,1.5,4,2,6,0.5s4-4.9,6-5.5s4,1.6,6,3.1c2,1.5,4,2.3,6,2.5c2,0.2,4-0.2,6,0c2,0.2,4,1,6,1.3
	c2,0.3,4,0,6-0.1c2-0.2,4-0.2,6-0.2c2,0,4,0.2,6,0.3c2,0.1,4,0,6,0c2-0.1,4-0.2,6-0.2c2,0,4,0,6,0c2,0,4,0.1,6,0.1c2,0,4,0.1,6,0.1
	s4,0.2,6,0.1c2-0.1,4-0.3,6-0.3c2,0,4,0.3,6,0.4s4-0.2,6-0.3c2-0.1,4-0.1,6-0.2c2,0,4,0,6,0c2,0,4,0,6,0c2,0,4,0.1,6,0.1
	c2,0,4,0,6,0c2,0,4,0.2,6,0.2c2,0,4,0,6-0.1c2-0.1,4-0.2,6-0.3c2-0.1,4-0.1,6,0.1c2,0.2,4,0.5,6,0.6c2,0.1,4,0,6-0.1
	c2-0.1,4-0.3,6-0.4c2-0.1,4-0.1,6-0.1c2,0,4,0.1,6,0.1c2,0,4,0,6,0s4-0.1,6-0.1c2,0,4,0.2,6.5,0.1c10.4-0.3,21.3-0.8,31.6-0.2
	c2,0.1,4,0.3,6,0.4c2,0,4-0.2,6-0.5c2-0.3,4-0.8,6-1.1c2-0.3,4-0.4,6-0.5c2-0.1,4-0.2,6,0.2c2,0.4,4,1.5,6,1.5c2,0.1,4-0.8,6-1.1
	s4,0,6,0.2c2,0.3,4,0.5,6,0.5c2,0,4-0.3,6-1c2-0.8,4-2,6-1.7c2,0.3,4,2.2,6,2.1c2-0.1,4-2.2,6-3.8c2-1.6,4-2.8,6-3.3
	c2-0.5,4-0.3,6-0.2c2,0.1,4,0.1,6-0.1c2-0.2,4-0.6,6-0.5c2,0.1,4,0.8,6,2.5c2,1.7,4,4.5,6,5.8c2,1.3,4,1,6,0.9c2,0,4,0.2,6,0.2
	c2,0,4-0.2,6-0.2c2,0,4,0.2,6,0.3c2,0.1,4,0.1,6,0c2-0.1,4-0.2,6-0.2c2,0,4,0.2,6,0.2c2,0,4-0.3,6-0.2c2,0,4,0.3,6,0.4
	c2,0.2,4,0.2,6-1.7c2-1.9,4-5.7,6-7.4c2-1.7,4-1.2,6-1.6s4-1.6,6-1.3s4,2,6,1.9c2-0.2,4-2.2,6-1.4c2,0.8,4,4.5,6,5.5
	c2,1,4-0.6,6-1.4s4-0.8,6-0.7c2,0.1,4,0.4,6,0c2-0.3,4-1.3,6,0c2,1.3,4,4.8,6,6.6c2,1.8,4,1.8,6,0.3c2-1.4,4-4.3,6-6s4-2.3,6-1.6
	c2,0.6,4,2.4,6,3.5c2,1.1,4,1.5,6,2.2c2,0.7,4,1.8,6,2.2c2,0.5,4,0.3,6,0.4c2,0,4,0.3,6.5,0.3c2.5,0,5.5-0.2,11.5,0.3"/>
<path class="st0" d="M0,302.9c0,0,3-0.4,5.5-0.6S10,302,12,302c2,0,4,0,6,0.1s4,0.2,6,0.2c2,0,4,0,6,0.1c2,0.1,4,0.3,6,0
	c2-0.3,4-1.2,6-1.6c2-0.3,4-0.1,6-0.3c2-0.1,4-0.6,6-0.5c2,0.1,4,0.8,6,1.3c2,0.5,4,0.9,6,0.4c2-0.5,4-1.7,6-2s4,0.4,6-0.4
	c2-0.7,4-2.9,6-4c2-1.1,4-1.1,6-0.9c2,0.1,4,0.4,6,1.6c2,1.2,4,3.4,6,3.9s4-0.7,6-1.1c2-0.4,4,0,6,0.4c2,0.4,4,0.8,6-0.1
	c2-0.9,4-3.2,6-2.8c2,0.4,4,3.4,6,4.9c2,1.5,4,1.4,6,1.3c2,0,4,0,6-0.1c2-0.1,4-0.3,6-0.4c2-0.1,4,0,6,0.1c2,0.1,4,0.2,6,0.2
	c2,0,4-0.2,6-0.2c2,0,4,0.1,6,0.1c2,0,4-0.2,6-0.3s4-0.1,6,0c2,0,4,0.1,6,0.3c2,0.1,4,0.3,6,0.3s4,0,6-0.1c2-0.1,4-0.3,6-0.3
	c2-0.1,4-0.1,6-0.1c2,0,4,0,6,0c2,0,4,0,6,0c2,0,4,0,6,0.1c2,0.1,4,0.1,6,0.2c2,0,4,0,6,0c2-0.1,4-0.2,6-0.2c2,0,4,0.1,6,0.2
	s4,0.3,6,0.3c2,0,4-0.2,6-0.3c2,0,4,0.1,6,0c2,0,4-0.2,6-0.2c2,0,4,0.2,6,0.3c2,0.1,4,0,6-0.1s4-0.2,6-0.2c2,0,4,0.3,6.5,0.2
	c10.4-0.3,21.2-0.9,31.6-0.4c2,0.1,4,0.3,6,0.4c2,0,4-0.1,6-0.2c2-0.1,4-0.2,6-0.2c2,0,4,0.1,6-0.3c2-0.4,4-1.2,6-1.6
	c2-0.4,4-0.5,6-0.2c2,0.3,4,1,6,0.8c2-0.2,4-1.2,6-1.6c2-0.5,4-0.4,6,0c2,0.4,4,1.1,6,0.8c2-0.2,4-1.4,6-1.9c2-0.5,4-0.4,6-0.2
	c2,0.1,4,0.3,6,0.7c2,0.5,4,1.2,6,0.3c2-1,4-3.6,6-5c2-1.4,4-1.4,6,0.1c2,1.5,4,4.7,6,6c2,1.4,4,1,6,1.2c2,0.2,4,1,6,1.3
	c2,0.3,4,0,6,0s4,0.1,6,0.1c2,0,4-0.2,6-0.2c2,0,4,0.2,6,0.2c2,0,4-0.2,6-0.3c2-0.1,4,0,6,0c2,0,4,0.1,6,0.1c2,0,4,0.1,6,0
	c2-0.1,4-0.2,6-0.1c2,0.1,4,0.4,6-1.5c2-1.9,4-6.1,6-7.9c2-1.8,4-1.2,6,0.9s4,5.7,6,5.2c2-0.5,4-5.1,6-7.1c2-2,4-1.6,6,0.5
	c2,2.1,4,5.8,6,6.7c2,0.9,4-1,6-2.5s4-2.6,6-2.8c2-0.2,4,0.7,6,1.1c2,0.4,4,0.4,6,0.6c2,0.2,4,0.5,6,0c2-0.5,4-1.7,6-1.6
	c2,0.2,4,1.8,6,2.2s4-0.2,6,0.6s4,2.9,6,3.6c2,0.7,4-0.1,6-0.1c2,0,4,1,6,1.4c2,0.5,4,0.5,6,0.6c2,0.1,4,0.2,6.5,0.1
	c2.5,0,5.5-0.2,11.5-0.3"/>
<path class="st0" d="M0,290.1c0,0,3-0.3,5.5-0.5c2.5-0.2,4.5-0.4,6.5-0.4s4,0.2,6,0.3s4,0.2,6,0.2c2,0,4-0.2,6-0.3s4-0.2,6-0.3
	c2-0.1,4-0.3,6-0.5c2-0.3,4-0.6,6-0.7s4,0,6,0.5c2,0.4,4,1.1,6,1c2-0.2,4-1.2,6-1.6c2-0.5,4-0.4,6-0.7c2-0.3,4-1,6-2.3
	c2-1.3,4-3.2,6-3c2,0.2,4,2.5,6,3.2c2,0.6,4-0.4,6-1.6c2-1.2,4-2.4,6-3s4-0.4,6,0.1c2,0.5,4,1.3,6,1.6c2,0.3,4,0,6-0.1
	c2-0.1,4-0.1,6,1.3c2,1.4,4,4.2,6,5.5c2,1.3,4,1,6,0.9c2,0,4,0.2,6,0.2c2,0,4-0.2,6-0.2c2-0.1,4-0.1,6,0c2,0,4,0.1,6,0.1
	c2,0,4-0.1,6-0.1c2,0,4,0.1,6,0.1c2,0.1,4,0.1,6,0c2-0.1,4-0.2,6-0.2c2,0,4,0.1,6,0.2c2,0.2,4,0.4,6,0.3s4-0.4,6-0.5
	c2-0.2,4-0.2,6-0.1c2,0.1,4,0.2,6,0.3c2,0,4-0.1,6-0.1c2,0,4,0,6,0c2,0,4,0,6,0c2,0,4,0.2,6,0.2c2,0,4,0,6-0.1c2-0.1,4-0.2,6-0.2
	c2,0,4,0.1,6,0.2s4,0.3,6,0.4c2,0.1,4,0,6-0.1c2-0.1,4-0.3,6-0.4c2-0.1,4-0.2,6-0.1c2,0.1,4,0.3,6,0.4c2,0.1,4,0,6,0.1s4,0.2,6,0.2
	c2,0,4-0.2,6.5-0.4c8.5-0.6,17.1,0,25.6-0.3c2-0.1,4-0.1,6,0c2,0.1,4,0.2,6,0.2c2,0,4-0.1,6-0.3c2-0.2,4-0.5,6-0.8s4-0.7,6-0.4
	c2,0.3,4,1.2,6,1.1c2-0.1,4-1.2,6-1.5c2-0.2,4,0.5,6,0.9c2,0.5,4,0.7,6,0.3c2-0.5,4-1.6,6-2c2-0.4,4,0.1,6,0.7c2,0.6,4,1.2,6,0.8
	c2-0.4,4-1.9,6-2c2-0.1,4,1.2,6,0.4c2-0.8,4-3.8,6-4c2-0.2,4,2.4,6,3.5c2,1.1,4,0.7,6-0.3c2-1,4-2.7,6-3.7c2-1.1,4-1.6,6-0.2
	c2,1.4,4,4.8,6,6.3c2,1.5,4,1.2,6,1.1c2-0.2,4-0.2,6-0.2c2,0,4,0,6,0c2,0,4,0.1,6,0.1c2,0.1,4,0.1,6,0.1c2,0,4-0.1,6,0
	c2,0.1,4,0.3,6,0.3c2,0.1,4-0.1,6-0.1c2,0,4,0.1,6,0.2c2,0.1,4,0.2,6-1.7c2-1.9,4-5.7,6-7c2-1.3,4-0.2,6-0.6s4-2.3,6-3.3
	s4-0.9,6-0.8c2,0.1,4,0.2,6,0.7c2,0.5,4,1.5,6,2.4c2,0.9,4,1.8,6,3s4,2.5,6,3s4,0.1,6-1s4-3,6-3.4c2-0.3,4,0.9,6,2.4
	c2,1.5,4,3.4,6,4.6c2,1.1,4,1.6,6,1c2-0.6,4-2.2,6-3.2c2-1,4-1.3,6-2.2c2-0.9,4-2.4,6-1.5c2,0.8,4,3.9,6,5.5c2,1.6,4,1.6,6,1.7
	c2,0.1,4,0.2,6.5,0.2c2.5,0,5.5,0,11.5-0.4"/>
<path class="st0" d="M0,277.3c0,0,3-0.3,5.5-0.4c2.5-0.1,4.5,0,6.5,0s4-0.1,6-0.1s4,0,6,0c2,0,4,0.1,6-0.2c2-0.3,4-0.9,6-1.3
	c2-0.4,4-0.5,6-0.6c2-0.1,4-0.1,6-0.2s4-0.4,6-0.5c2-0.1,4-0.1,6,0.4c2,0.6,4,1.7,6,2c2,0.3,4-0.4,6-0.7s4-0.2,6-0.1
	c2,0.1,4,0.3,6-0.7c2-1,4-3.2,6-4.6s4-2.1,6-2.1c2,0,4,0.7,6,1.5c2,0.8,4,1.8,6,1.4c2-0.4,4-2.2,6-3.1c2-0.8,4-0.7,6,0.8s4,4.3,6,6
	c2,1.6,4,2,6,2.1c2,0.1,4-0.1,6-0.3c2-0.1,4-0.2,6-0.2c2,0,4-0.1,6-0.1c2,0,4,0.1,6,0.1c2,0,4,0,6,0.1c2,0.1,4,0.4,6,0.5
	c2,0.1,4,0.1,6,0c2-0.1,4-0.4,6-0.4c2,0,4,0.3,6,0.3c2,0,4-0.3,6-0.3c2,0,4,0.3,6,0.3c2,0,4-0.3,6-0.4c2-0.1,4-0.1,6-0.1
	c2,0,4-0.1,6-0.1c2,0,4,0,6,0.1c2,0.1,4,0.2,6,0.4c2,0.1,4,0.2,6,0.3c2,0,4,0,6-0.1s4-0.4,6-0.5c2-0.1,4-0.1,6-0.1c2,0,4,0,6,0.1
	s4,0.4,6,0.5c2,0.1,4,0,6-0.1c2-0.1,4-0.3,6-0.3c2,0,4,0.1,6,0.1c2,0,4-0.2,6-0.2c2,0,4,0.1,6,0.3s4,0.3,6,0.3c2,0,4-0.1,6.5-0.3
	c8.4-0.7,17.2,0,25.6,0c2,0,4-0.2,6-0.2c2,0,4,0.2,6,0.3c2,0.1,4,0.1,6-0.2c2-0.3,4-1,6-0.9s4,0.8,6,0.7c2-0.1,4-1.2,6-1.8
	c2-0.6,4-0.7,6-0.3c2,0.3,4,1,6,1s4-0.8,6-1.3c2-0.5,4-0.8,6-0.4c2,0.4,4,1.6,6,2.2c2,0.6,4,0.7,6,0c2-0.7,4-2.2,6-2.9
	c2-0.7,4-0.7,6-1.4c2-0.8,4-2.4,6-2.7c2-0.3,4,0.7,6,1.3c2,0.7,4,1,6,0.8c2-0.2,4-0.8,6-0.8c2,0,4,0.6,6,1.9c2,1.3,4,3.2,6,4
	c2,0.8,4,0.5,6,0.4s4-0.1,6-0.1c2,0,4-0.1,6,0c2,0.1,4,0.3,6,0.3c2,0,4-0.2,6-0.3c2-0.1,4-0.1,6,0c2,0.1,4,0.2,6,0.2
	c2,0,4-0.2,6-0.1c2,0,4,0.3,6,0.5c2,0.2,4,0.2,6-0.6c2-0.9,4-2.7,6-3.1c2-0.5,4,0.4,6-0.2c2-0.6,4-2.7,6-4.5c2-1.8,4-3.4,6-4.2
	c2-0.8,4-1,6,1.3c2,2.3,4,7,6,8.2c2,1.2,4-1.1,6-2.8s4-2.8,6-1.7s4,4.5,6,6s4,1.1,6-0.2c2-1.3,4-3.5,6-5c2-1.6,4-2.5,6-2.7
	c2-0.1,4,0.6,6,1.9c2,1.4,4,3.4,6,3c2-0.3,4-3.1,6-4.1c2-1,4-0.3,6,1.3c2,1.7,4,4.3,6,5.7c2,1.4,4,1.6,6,1.7c2,0.1,4,0,6.5-0.2
	c2.5-0.2,5.5-0.6,11.5-0.6"/>
<path class="st0" d="M0,264.5c0,0,3-0.3,5.5-0.4c2.5-0.1,4.5,0,6.5-0.1s4-0.3,6-0.4c2-0.1,4,0,6,0s4,0,6,0.2c2,0.1,4,0.4,6,0.3
	c2-0.1,4-0.4,6-0.9c2-0.4,4-0.9,6-1.3c2-0.4,4-0.6,6-0.8c2-0.1,4-0.1,6,0.2s4,1,6,0.9c2-0.1,4-1,6-1.2s4,0.4,6,0.1s4-1.4,6-1.2
	c2,0.2,4,1.7,6,1.9s4-1,6-2.6c2-1.6,4-3.5,6-4.5s4-1,6-0.3c2,0.6,4,1.9,6,3.5c2,1.6,4,3.4,6,4.6s4,1.6,6,1.7c2,0.2,4,0.2,6,0
	c2-0.2,4-0.5,6-0.6s4-0.1,6-0.1c2,0.1,4,0.2,6,0.3c2,0.1,4,0,6,0c2,0,4-0.1,6-0.1c2,0,4-0.1,6,0c2,0,4,0.2,6,0.2c2,0,4,0,6-0.1
	s4-0.2,6-0.3c2-0.1,4-0.1,6,0.1c2,0.1,4,0.4,6,0.5s4,0,6-0.1c2-0.1,4-0.3,6-0.4c2-0.1,4-0.2,6-0.1c2,0.1,4,0.3,6,0.4
	c2,0.1,4,0.1,6,0c2-0.1,4-0.2,6-0.2c2,0,4,0.2,6,0.2c2,0,4,0,6-0.1c2-0.1,4-0.2,6-0.2c2,0,4,0.1,6,0.2c2,0.1,4,0.3,6,0.4
	c2,0.1,4,0,6-0.1c2-0.1,4-0.3,6-0.4s4,0.1,6,0.2c2,0,4-0.1,6-0.1c2,0,4,0.1,6,0.1c2,0,4-0.1,6-0.1c10.7,0.1,21.4,0.7,32.1,0.3
	c2-0.1,4-0.3,6-0.3c2-0.1,4,0,6,0.1c2,0.1,4,0.3,6,0c2-0.3,4-1,6-1.3s4-0.5,6-0.5c2-0.1,4-0.1,6-0.3c2-0.1,4-0.4,6-0.3
	c2,0,4,0.3,6,0.2c2-0.1,4-0.6,6-1c2-0.4,4-0.6,6-0.2c2,0.4,4,1.6,6,1.9c2,0.4,4,0,6-0.7c2-0.6,4-1.5,6-2.1c2-0.6,4-1,6-1.3
	c2-0.3,4-0.5,6,0c2,0.4,4,1.5,6,2c2,0.5,4,0.5,6-0.4c2-0.9,4-2.8,6-4c2-1.2,4-1.6,6-0.1c2,1.5,4,5.1,6,6.7c2,1.6,4,1.4,6,1.2
	c2-0.2,4-0.2,6-0.2c2,0,4,0.2,6,0.3c2,0.1,4,0.2,6,0.1c2-0.1,4-0.3,6-0.4c2-0.1,4-0.1,6,0c2,0,4,0.1,6,0.1c2,0,4-0.1,6-0.2
	c2-0.1,4-0.1,6,0.1c2,0.2,4,0.5,6-0.7c2-1.1,4-3.7,6-4s4,1.6,6,0.9s4-4.1,6-6.1c2-2,4-2.5,6-2.8c2-0.3,4-0.3,6,1.4c2,1.7,4,5,6,5.6
	c2,0.6,4-1.6,6-1.4c2,0.2,4,2.8,6,2.8s4-2.6,6-3.6c2-1,4-0.5,6-0.2c2,0.3,4,0.3,6,1.3c2,1,4,3,6,4.1c2,1,4,1,6,0.4c2-0.6,4-1.7,6-3
	c2-1.3,4-2.7,6-2.4c2,0.4,4,2.6,6,4.1c2,1.5,4,2.4,6,3.1c2,0.6,4,0.9,6,1c2,0.1,4,0.1,6.5-0.1c2.5-0.2,5.5-0.6,11.5,0.2"/>
<path class="st0" d="M0,251.7c0,0,3-0.3,5.5-0.5c2.5-0.2,4.5-0.4,6.5-0.4c2-0.1,4,0,6,0c2,0,4,0.1,6,0.1c2,0,4,0,6-0.1s4-0.5,6-0.8
	c2-0.3,4-0.6,6-0.8c2-0.2,4-0.3,6,0.2s4,1.4,6,1.2c2-0.2,4-1.5,6-1.8c2-0.3,4,0.3,6,0.2c2,0,4-0.7,6-1.2s4-0.6,6-0.1
	c2,0.5,4,1.6,6,2.2c2,0.6,4,0.6,6-0.5c2-1.1,4-3.3,6-4.8c2-1.5,4-2.5,6-2.9s4-0.5,6-0.3s4,0.7,6,0.7c2,0,4-0.5,6,0.5
	c2,0.9,4,3.3,6,5c2,1.8,4,3,6,3.5c2,0.5,4,0.2,6,0.1s4-0.2,6-0.2c2,0,4-0.1,6,0c2,0.1,4,0.3,6,0.4c2,0.1,4-0.1,6-0.2
	c2-0.1,4-0.2,6-0.1c2,0,4,0.2,6,0.2c2,0,4-0.2,6-0.1c2,0,4,0.3,6,0.4c2,0,4-0.1,6-0.1c2,0,4,0.2,6,0.2s4,0,6-0.1c2-0.1,4-0.3,6-0.4
	c2-0.1,4-0.2,6-0.2c2,0,4,0,6,0.1c2,0.1,4,0.1,6,0.2c2,0.1,4,0.3,6,0.4c2,0.1,4,0,6-0.1c2-0.1,4-0.4,6-0.5c2-0.1,4-0.1,6-0.1
	c2,0,4,0.1,6,0.3s4,0.3,6,0.3c2,0,4-0.3,6-0.4c2,0,4,0.1,6,0.1s4-0.2,6-0.3c2-0.1,4,0,6,0c2,0.1,4,0.1,6,0.1c2,0,4-0.1,6-0.1
	c10.7,0.1,21.4,0.2,32.1,0.4c2,0,4,0,6-0.1c2-0.1,4-0.2,6-0.2c2-0.1,4-0.1,6-0.2c2-0.1,4-0.3,6-0.6s4-0.8,6-0.6c2,0.1,4,0.8,6,1.3
	c2,0.5,4,0.7,6,0.1c2-0.5,4-1.9,6-2.5s4-0.7,6-0.6c2,0.1,4,0.2,6,0.4c2,0.2,4,0.5,6,0.3c2-0.2,4-0.8,6-1.2c2-0.4,4-0.6,6,0.1
	c2,0.7,4,2.3,6,2.5c2,0.3,4-0.8,6-1.1c2-0.3,4,0.1,6,0.7c2,0.6,4,1.4,6,1.4c2,0,4-0.8,6-2c2-1.1,4-2.6,6-2.2c2,0.4,4,2.6,6,3.7
	c2,1,4,0.8,6,0.7c2,0,4,0.1,6,0.1c2,0,4-0.3,6-0.3c2,0,4,0.1,6,0.1c2,0,4-0.1,6,0c2,0.1,4,0.3,6,0.4c2,0.1,4,0,6-0.1
	c2-0.1,4-0.1,6-0.2c2-0.1,4-0.2,6-0.1c2,0.1,4,0.4,6-1.5c2-1.9,4-6.1,6-7.8c2-1.7,4-0.9,6-1.1s4-1.4,6-2c2-0.6,4-0.6,6,0.9
	c2,1.5,4,4.3,6,4.8c2,0.5,4-1.4,6-1.9c2-0.6,4,0.1,6,1.3c2,1.2,4,2.8,6,3.4c2,0.6,4,0.2,6-0.9c2-1.2,4-3.1,6-3.6c2-0.5,4,0.5,6,0.5
	c2,0.1,4-0.7,6,0.3c2,1.1,4,4.1,6,4.8c2,0.7,4-0.8,6-2.1s4-2.5,6-2.6c2-0.2,4,0.6,6,2.1c2,1.4,4,3.5,6,4.5c2,1,4,0.9,6,0.9
	c2,0,4,0.1,6.5,0.1c2.5,0,5.5-0.2,11.5-0.3"/>
<path class="st0" d="M0,238.9c0,0,3-0.3,5.5-0.5c2.5-0.2,4.5-0.3,6.5-0.4s4-0.1,6,0s4,0.3,6,0.3c2,0,4-0.1,6-0.2s4-0.2,6-0.2
	c2,0,4,0.1,6-0.1c2-0.1,4-0.4,6-0.7c2-0.2,4-0.4,6-0.7c2-0.4,4-1,6-1.2c2-0.2,4-0.1,6-0.2c2-0.1,4-0.5,6-0.8c2-0.3,4-0.5,6-0.5
	s4,0.1,6-0.8c2-0.9,4-2.9,6-3.7c2-0.8,4-0.5,6,0.6c2,1.2,4,3.2,6,3.7s4-0.6,6-0.4c2,0.2,4,1.7,6,1.2c2-0.5,4-2.9,6-3.1s4,1.9,6,3.5
	c2,1.6,4,2.8,6,3.3c2,0.4,4,0.1,6,0.1s4,0.2,6,0.2c2,0,4-0.2,6-0.3c2,0,4,0.1,6,0.1c2,0.1,4,0,6,0c2,0,4-0.1,6,0c2,0,4,0.2,6,0.1
	c2,0,4-0.2,6-0.1c2,0,4,0.3,6,0.3c2,0,4-0.1,6-0.1c2,0,4,0.2,6,0.2s4-0.3,6-0.4c2-0.2,4-0.2,6-0.2c2,0,4,0,6,0.1c2,0,4,0,6,0
	c2,0,4,0.1,6,0.2c2,0.1,4,0.3,6,0.4c2,0.1,4,0,6-0.1s4-0.4,6-0.4c2,0,4,0.3,6,0.3c2,0,4-0.1,6-0.2s4,0.2,6,0.1c2,0,4-0.2,6-0.2
	c2,0,4,0.1,6,0.1c2,0,4-0.2,6-0.3c2,0,4,0.1,6,0.2c2,0.1,4,0.1,6,0.1s4-0.1,6-0.1c2,0,4,0.2,6.5,0.1c8.5-0.2,17.2-0.6,25.6-0.3
	c2,0.1,4,0.2,6,0.3c2,0.1,4,0.1,6,0c2,0,4-0.1,6-0.4c2-0.3,4-0.8,6-0.7s4,0.7,6,0.5c2-0.2,4-1.1,6-1.4c2-0.3,4,0.1,6,0.4
	c2,0.3,4,0.6,6,0.2s4-1.4,6-2c2-0.6,4-0.7,6,0c2,0.7,4,2.3,6,2.2c2-0.1,4-2,6-2c2,0,4,1.8,6,1.7c2-0.1,4-2.2,6-3.3
	c2-1.1,4-1.4,6-0.5c2,0.8,4,2.7,6,2.1c2-0.6,4-3.7,6-4.1c2-0.4,4,1.9,6,2.1c2,0.2,4-1.7,6-1.1c2,0.6,4,3.6,6,5c2,1.4,4,1.1,6,0.9
	s4-0.1,6-0.2c2,0,4,0,6,0.1c2,0.1,4,0.3,6,0.3c2,0,4-0.2,6-0.2c2,0,4,0.3,6,0.4c2,0.1,4,0,6-0.1c2-0.1,4-0.1,6-0.1c2,0,4,0.2,6,0.3
	c2,0.1,4,0.2,6-2c2-2.2,4-6.5,6-8.8s4-2.3,6-2.2c2,0.2,4,0.6,6,0.5c2-0.1,4-0.6,6-1c2-0.4,4-0.7,6,0.6c2,1.3,4,4.2,6,5.8
	c2,1.6,4,2,6,1.3c2-0.7,4-2.5,6-3.2c2-0.6,4-0.1,6,1.4s4,3.9,6,4.4c2,0.4,4-1.1,6-1.7c2-0.6,4-0.2,6,0.5c2,0.8,4,2,6,1.8
	s4-1.7,6-1.9c2-0.2,4,0.9,6,0.3s4-3.1,6-2.8c2,0.3,4,3.2,6,4.8c2,1.6,4,1.9,6,2c2,0.1,4,0.1,6.5-0.1c2.5-0.2,5.5-0.6,11.5-0.6"/>
<path class="st0" d="M0,226.1c0,0,3-0.4,5.5-0.6s4.5-0.3,6.5-0.3s4,0,6,0c2,0,4,0.1,6,0.2c2,0.1,4,0.3,6,0.1c2-0.2,4-0.7,6-1.1
	c2-0.4,4-0.7,6-0.7c2,0,4,0.3,6,0.7c2,0.5,4,1.1,6,0.8c2-0.3,4-1.4,6-2.1s4-1,6-0.8c2,0.3,4,1,6,1.1c2,0,4-0.7,6-2
	c2-1.3,4-3.2,6-4.3c2-1.1,4-1.4,6-1c2,0.3,4,1.3,6,1.3c2,0,4-0.9,6-0.6c2,0.3,4,1.9,6,2.2s4-0.6,6-1c2-0.4,4-0.4,6,0.6s4,3,6,4.5
	c2,1.4,4,2.2,6,2.5c2,0.3,4,0.2,6,0.1s4-0.3,6-0.3c2,0,4,0.1,6,0.3c2,0.1,4,0.2,6,0.2c2,0,4,0,6-0.1c2-0.1,4-0.3,6-0.3c2,0,4,0,6,0
	c2,0,4-0.1,6-0.2c2-0.1,4-0.1,6,0c2,0,4,0.1,6,0.3c2,0.1,4,0.3,6,0.3s4-0.2,6-0.3c2,0,4,0.1,6,0.1c2,0,4-0.2,6-0.2c2,0,4,0.2,6,0.3
	c2,0.1,4,0.1,6,0c2-0.1,4-0.2,6-0.2c2,0,4,0,6,0c2,0,4-0.1,6,0c2,0.1,4,0.3,6,0.4c2,0,4-0.1,6-0.2s4,0.2,6,0.1c2,0,4-0.3,6-0.4
	c2-0.1,4-0.1,6-0.1s4,0,6,0c2,0,4,0.1,6,0.1c2,0,4,0,6,0.1c2,0.1,4,0.4,6,0.5c12.8,0.6,25.4-0.8,38.1-0.6c2,0,4,0.1,6,0.1
	c2,0,4,0,6,0c2,0,4,0.2,6,0.2s4-0.1,6-0.5c2-0.4,4-1.1,6-1.4c2-0.2,4,0.1,6,0.1c2,0.1,4-0.1,6-0.4c2-0.3,4-0.9,6-0.9
	c2,0,4,0.4,6,0.4c2,0,4-0.4,6-0.5c2-0.1,4,0.2,6,0c2-0.2,4-0.8,6-1.3c2-0.5,4-0.9,6-1.7c2-0.8,4-1.9,6-1.8c2,0.1,4,1.4,6,2.2
	c2,0.8,4,1.2,6,1.8c2,0.6,4,1.3,6,1.7c2,0.4,4,0.4,6,0.8c2,0.4,4,1.2,6,1.5c2,0.3,4,0.1,6,0c2,0,4,0.1,6,0.1c2,0,4-0.2,6-0.3
	c2-0.1,4-0.1,6,0c2,0.1,4,0.2,6,0.2c2,0,4-0.1,6-0.1c2,0,4,0.2,6,0.3c2,0,4-0.1,6-0.1c2,0,4,0.1,6,0.2c2,0.1,4,0.2,6-1.1
	c2-1.3,4-3.8,6-5.9c2-2,4-3.5,6-4.3s4-0.7,6-0.9s4-0.8,6-1.2c2-0.4,4-0.7,6-0.1c2,0.7,4,2.2,6,3.9c2,1.6,4,3.3,6,4.3
	c2,1,4,1.4,6,0.9s4-1.9,6-1.7c2,0.2,4,2,6,2c2,0,4-1.8,6-2.8c2-1,4-1.3,6-1.8c2-0.5,4-1.2,6-0.2c2,1,4,3.7,6,3.8c2,0,4-2.7,6-4
	c2-1.4,4-1.4,6,0.3c2,1.7,4,5.1,6,6.7c2,1.6,4,1.5,6,1.5c2,0,4,0.2,6.5,0.1c2.5-0.1,5.5-0.3,11.5,0.5"/>
<path class="st0" d="M0,213.3c0,0,3-0.3,5.5-0.5c2.5-0.2,4.5-0.3,6.5-0.3s4,0.1,6,0.2s4,0.2,6,0.2s4,0,6,0c2,0,4-0.1,6-0.1
	c2,0,4,0,6-0.4c2-0.4,4-1.2,6-1.5s4,0,6-0.1c2-0.1,4-0.5,6-0.7s4,0,6,0.2c2,0.3,4,0.6,6,0.4c2-0.2,4-1.1,6-2.1s4-2.1,6-2.1
	c2,0,4,0.9,6,0.5s4-2.4,6-2.2c2,0.2,4,2.5,6,2.9c2,0.5,4-0.9,6-0.7c2,0.2,4,2,6,1.5c2-0.5,4-3.2,6-4.6s4-1.4,6,0.4c2,1.8,4,5.3,6,7
	c2,1.6,4,1.4,6,1.3s4,0.1,6,0.1c2,0,4,0,6,0c2,0,4-0.1,6-0.1c2-0.1,4-0.2,6-0.1c2,0.1,4,0.3,6,0.4c2,0,4-0.1,6-0.3
	c2-0.1,4-0.2,6-0.3s4-0.1,6-0.1c2,0,4,0,6,0.1c2,0.1,4,0.4,6,0.4c2,0,4-0.3,6-0.4c2-0.1,4-0.1,6-0.1c2,0,4,0,6,0c2,0,4,0.1,6,0.1
	c2,0.1,4,0.1,6,0.2c2,0.1,4,0.3,6,0.3c2,0,4-0.2,6-0.3c2-0.1,4-0.3,6-0.3c2-0.1,4-0.1,6-0.1c2,0,4,0,6,0.1c2,0.2,4,0.5,6,0.5
	c2,0,4-0.2,6-0.3c2-0.1,4,0.1,6,0.1c2,0,4-0.1,6-0.2c2,0,4,0,6,0.1c2,0.1,4,0.1,6,0.2s4,0.3,6,0.3c2,0,4,0,6.5-0.1
	c8.5-0.4,17.1-0.3,25.6-0.6c2-0.1,4-0.1,6,0c2,0,4,0.1,6,0.1c2,0,4,0,6-0.1c2-0.2,4-0.5,6-0.7s4-0.1,6-0.2c2-0.1,4-0.4,6-0.7
	c2-0.3,4-0.6,6-0.8c2-0.2,4-0.2,6-0.2c2,0,4,0,6,0.4c2,0.4,4,1.2,6,1c2-0.2,4-1.5,6-1.6c2-0.1,4,1,6,0.9c2-0.1,4-1.3,6-1.9
	c2-0.6,4-0.5,6-1c2-0.4,4-1.3,6-2c2-0.7,4-1.2,6-1.6c2-0.5,4-0.9,6,0.7c2,1.5,4,5,6,5.2c2,0.1,4-3.1,6-3.2c2,0,4,3.2,6,4.7
	c2,1.5,4,1.3,6,1.1c2-0.2,4-0.2,6-0.2c2,0,4,0,6,0.1c2,0.1,4,0.2,6,0.2c2,0.1,4,0.1,6,0.1c2,0,4-0.2,6-0.2c2,0,4,0.1,6,0.1
	c2,0,4-0.2,6-0.3c2-0.1,4-0.1,6,0.1c2,0.2,4,0.5,6-0.6c2-1.1,4-3.7,6-4.6s4-0.2,6-1.2s4-3.8,6-5.1s4-1.3,6,0.3c2,1.6,4,4.8,6,6.1
	c2,1.3,4,0.7,6,0c2-0.7,4-1.6,6-2.3s4-1.1,6-1.1s4,0.4,6,0.8c2,0.3,4,0.6,6,1.4c2,0.8,4,2.2,6,2.9c2,0.7,4,0.7,6,0.3
	c2-0.4,4-1.1,6-2.2s4-2.7,6-3.1c2-0.4,4,0.2,6,0.8s4,1.2,6,2.5c2,1.3,4,3.5,6,4.5c2,1,4,0.9,6,0.9c2,0,4,0.2,6.5,0.1
	c2.5-0.1,5.5-0.3,11.5-0.4"/>
<path class="st0" d="M0,200.5c0,0,3-0.5,5.5-0.6S10,200,12,200c2,0,4-0.2,6-0.3s4,0.1,6,0.2c2,0.1,4,0.2,6-0.1s4-1,6-1.3
	c2-0.3,4-0.1,6,0.2c2,0.3,4,0.7,6,1c2,0.3,4,0.5,6,0.1c2-0.5,4-1.6,6-2.1c2-0.5,4-0.4,6-0.6c2-0.2,4-0.8,6-1.1c2-0.4,4-0.5,6-1
	c2-0.5,4-1.4,6-1.5c2-0.1,4,0.5,6,0.5s4-0.6,6-1.3c2-0.7,4-1.3,6-1.7s4-0.3,6,1.1s4,4.3,6,5.3c2,1,4,0.2,6-1s4-2.9,6-2.3
	c2,0.6,4,3.4,6,4.7c2,1.3,4,1.1,6,0.9c2-0.2,4-0.2,6-0.2c2,0,4,0.2,6,0.3c2,0.1,4,0,6,0c2-0.1,4-0.2,6-0.2c2,0,4,0,6,0.1
	c2,0.1,4,0.2,6,0.2c2,0,4-0.2,6-0.3s4-0.1,6-0.1c2,0,4,0,6,0.1c2,0.1,4,0.4,6,0.4c2,0,4-0.3,6-0.4c2-0.1,4-0.1,6,0c2,0,4,0,6,0
	c2,0,4,0,6,0c2,0,4,0,6,0.1c2,0.1,4,0.4,6,0.5c2,0.1,4,0,6-0.1c2-0.1,4-0.1,6-0.2c2-0.1,4-0.2,6-0.3c2-0.1,4-0.1,6,0.1
	c2,0.2,4,0.5,6,0.6c2,0.1,4,0,6-0.1c2-0.2,4-0.4,6-0.4s4,0.1,6,0.2c2,0.1,4,0,6-0.1c2-0.1,4-0.2,6-0.2c2,0,4,0,6,0.1
	c10.8,0.7,21.4,0,32.1-0.2c2,0,4,0,6,0c2,0.1,4,0.2,6,0.3c2,0.1,4,0.2,6,0.1c2-0.1,4-0.5,6-0.5s4,0.4,6,0.2c2-0.3,4-1.2,6-1.5
	c2-0.3,4,0,6,0.3c2,0.3,4,0.5,6,0.2s4-1.4,6-1.3c2,0.1,4,1.2,6,1.1c2-0.1,4-1.5,6-1.7c2-0.2,4,0.7,6,0.7c2,0,4-1,6-1.6
	c2-0.6,4-0.8,6-0.3c2,0.5,4,1.6,6,1c2-0.6,4-2.8,6-4.2c2-1.4,4-1.8,6-0.3c2,1.5,4,5.1,6,5.6c2,0.5,4-2.1,6-2.1c2,0,4,2.6,6,3.7
	c2,1.1,4,0.8,6,0.7s4-0.1,6-0.1c2,0,4,0,6,0.1c2,0,4,0.1,6,0.2c2,0.1,4,0.1,6,0.1c2,0,4-0.2,6-0.2c2,0,4,0,6,0c2,0,4,0.1,6,0
	c2-0.1,4-0.2,6-0.1c2,0.1,4,0.4,6-1c2-1.5,4-4.7,6-6.4s4-1.8,6-1.6s4,0.5,6,0.8s4,0.5,6-0.4c2-0.9,4-2.9,6-3.2c2-0.3,4,0.9,6,2.9
	c2,2,4,4.7,6,4.8s4-2.3,6-2.9s4,0.7,6,0.7s4-1.5,6-2.1c2-0.6,4-0.2,6,0.7c2,0.9,4,2.4,6,2.2c2-0.2,4-2.1,6-1.7s4,3.1,6,3.1
	s4-2.5,6-2.7c2-0.2,4,2,6,3.5c2,1.5,4,2.4,6,3.1c2,0.6,4,0.9,6,1c2,0.1,4,0.1,6.5-0.1c2.5-0.1,5.5-0.3,11.5-0.7"/>
<path class="st0" d="M0,187.7c0,0,3-0.5,5.5-0.7s4.5-0.2,6.5-0.2c2,0,4,0,6,0.1c2,0,4,0.1,6,0.1c2,0,4,0,6,0c2,0,4-0.1,6-0.4
	c2-0.3,4-0.9,6-1.1c2-0.2,4-0.1,6,0s4,0.1,6-0.2c2-0.3,4-0.9,6-1.2s4-0.4,6,0c2,0.3,4,1,6,1.2c2,0.1,4-0.3,6-0.8s4-1,6-1.7
	c2-0.7,4-1.7,6-1.9c2-0.2,4,0.5,6,0.2c2-0.2,4-1.4,6-1.2s4,1.7,6,1.5s4-2,6-1.6c2,0.4,4,3,6,2.9s4-2.7,6-2.3c2,0.4,4,3.9,6,5.5
	c2,1.6,4,1.4,6,1.2s4-0.2,6-0.2c2,0,4-0.1,6-0.1c2,0,4,0.1,6,0.1c2,0,4,0,6,0.1c2,0.1,4,0.4,6,0.5c2,0.1,4,0,6-0.1
	c2-0.1,4-0.1,6-0.2c2-0.1,4-0.2,6-0.3c2-0.1,4-0.1,6,0.1c2,0.1,4,0.4,6,0.5c2,0,4-0.2,6-0.2c2,0,4,0.1,6,0.1c2,0,4-0.2,6-0.2
	c2,0,4,0.2,6,0.3c2,0.1,4-0.1,6-0.1c2-0.1,4-0.2,6-0.1c2,0,4,0.2,6,0.2c2,0,4-0.2,6-0.1c2,0,4,0.3,6,0.4c2,0,4-0.1,6-0.1
	c2,0,4,0.2,6,0.1c2,0,4-0.3,6-0.4c2-0.1,4-0.1,6,0s4,0.2,6,0.2c2,0,4-0.2,6-0.2c2-0.1,4-0.1,6-0.1c2,0,4,0,6,0.1
	c10.7,0.3,21.4-0.2,32.1-0.2c2,0,4,0,6,0.1c2,0.1,4,0.2,6,0.2c2,0,4,0,6-0.2c2-0.2,4-0.6,6-0.9c2-0.3,4-0.7,6-0.5c2,0.2,4,0.8,6,0.7
	c2-0.1,4-1,6-1.5c2-0.5,4-0.7,6-0.8c2-0.1,4-0.1,6,0.1c2,0.2,4,0.6,6,1.1c2,0.5,4,1.2,6,1.7c2,0.5,4,0.7,6,0.8c2,0.1,4,0.1,6-0.7
	c2-0.8,4-2.5,6-4.3c2-1.8,4-3.6,6-3.5c2,0,4,1.9,6,2.9c2,1,4,1,6,0c2-1,4-2.9,6-2.7c2,0.2,4,2.5,6,4.2c2,1.7,4,2.9,6,3.4
	c2,0.4,4,0.1,6,0c2-0.2,4-0.2,6-0.2c2,0,4,0,6,0.1c2,0.1,4,0.2,6,0.3c2,0.1,4,0.2,6,0.1c2,0,4-0.2,6-0.2c2,0,4,0.2,6,0.2
	c2,0,4-0.3,6-0.4c2-0.1,4-0.1,6,0c2,0.2,4,0.5,6-1c2-1.5,4-4.7,6-6.5c2-1.8,4-2.1,6-2.8s4-1.7,6-1.3s4,2.1,6,2.1c2,0,4-1.9,6-1.8
	c2,0.1,4,2.2,6,3.3c2,1.1,4,1.1,6,1.1s4,0,6-0.2s4-0.7,6-0.6c2,0.2,4,0.9,6,0.9c2-0.1,4-1.1,6-0.9c2,0.2,4,1.5,6,1.6
	c2,0.1,4-1,6-1.8s4-1.3,6-0.7s4,2.2,6,3.1c2,1,4,1.3,6,2.2c2,0.9,4,2.3,6,3.1c2,0.8,4,0.9,6,1c2,0,4-0.1,6.5-0.2
	c2.5-0.1,5.5-0.2,11.5-0.6"/>
<path class="st0" d="M0,174.9c0,0,3-0.4,5.5-0.5s4.5,0,6.5,0.1c2,0,4,0,6-0.1c2-0.1,4-0.2,6-0.2c2-0.1,4-0.1,6-0.4s4-0.7,6-0.6
	c2,0.1,4,0.8,6,1.2c2,0.3,4,0.3,6,0.4c2,0,4,0.1,6-0.4c2-0.5,4-1.7,6-2.4s4-1,6-1.2c2-0.2,4-0.4,6,0.3c2,0.7,4,2.1,6,2.5
	c2,0.4,4-0.3,6-2c2-1.7,4-4.4,6-4.4s4,2.7,6,3.2c2,0.5,4-1.3,6-2.5c2-1.2,4-1.9,6-2.3s4-0.6,6-0.2c2,0.3,4,1.2,6,2.1
	c2,0.9,4,1.9,6,3.2c2,1.3,4,2.9,6,3.5c2,0.6,4,0.3,6,0.2s4-0.1,6,0c2,0.1,4,0.2,6,0.2c2,0,4,0,6,0c2,0,4-0.1,6-0.1c2,0,4-0.1,6,0
	c2,0,4,0.2,6,0.1c2,0,4-0.2,6-0.3s4-0.1,6-0.1c2,0,4,0,6,0.1c2,0.2,4,0.5,6,0.5s4-0.2,6-0.3c2-0.1,4-0.1,6-0.2c2,0,4,0,6,0.1
	c2,0.1,4,0.3,6,0.3c2,0.1,4,0,6,0.1c2,0,4,0.2,6,0.2c2,0,4,0,6-0.1s4-0.4,6-0.5c2-0.1,4-0.1,6-0.1c2,0,4,0.1,6,0.3
	c2,0.2,4,0.4,6,0.4c2,0.1,4,0,6-0.2c2-0.2,4-0.4,6-0.5s4-0.1,6-0.1c2,0.1,4,0.2,6,0.2c2,0.1,4,0.1,6,0.1s4-0.2,6-0.1
	c2,0,4,0.3,6.5,0.3c8.5,0,17.1-0.6,25.6-0.5c2,0,4,0.2,6,0.3c2,0.1,4,0.2,6,0.2c2,0,4-0.2,6-0.5c2-0.3,4-0.9,6-1.2
	c2-0.3,4-0.3,6-0.5c2-0.1,4-0.3,6-0.3c2,0.1,4,0.4,6,0.4c2-0.1,4-0.5,6-0.5c2,0,4,0.3,6,0.8c2,0.4,4,0.9,6,0.4c2-0.4,4-1.8,6-2.4
	c2-0.6,4-0.6,6-0.7c2,0,4-0.2,6-0.3c2-0.2,4-0.4,6-0.7c2-0.3,4-0.6,6-1.4c2-0.8,4-2,6-2.5c2-0.5,4-0.2,6,1.2c2,1.4,4,3.8,6,5.2
	c2,1.4,4,1.8,6,2.2c2,0.4,4,0.8,6,0.9c2,0.1,4,0,6-0.1s4-0.3,6-0.4c2-0.1,4-0.1,6-0.1c2,0.1,4,0.3,6,0.3c2,0,4-0.2,6-0.3
	c2-0.1,4-0.1,6,0c2,0.1,4,0.3,6,0.4c2,0.1,4-0.1,6-0.1c2,0,4,0.1,6,0.2c2,0.1,4,0.2,6-1.1c2-1.3,4-3.8,6-6s4-3.7,6-4.4s4-0.6,6-0.7
	c2-0.2,4-0.7,6-0.8c2-0.1,4,0.2,6,1.3c2,1.1,4,3.1,6,3.7c2,0.6,4-0.2,6-0.5s4-0.1,6,0.2s4,0.5,6,0.3s4-0.9,6-1.4c2-0.5,4-0.8,6-0.8
	c2,0,4,0.3,6,0.8c2,0.5,4,1.2,6,1c2-0.1,4-1.1,6,0c2,1.1,4,4.2,6,4.6c2,0.3,4-2.1,6-2c2,0.1,4,2.7,6,4c2,1.3,4,1.2,6,1.3
	c2,0.1,4,0.3,6.5,0.3c2.5,0,5.5-0.2,11.5-0.6"/>
<path class="st0" d="M0,162.1c0,0,3-0.4,5.5-0.6s4.5-0.3,6.5-0.2c2,0,4,0.2,6,0.2c2,0,4-0.1,6-0.1c2-0.1,4-0.1,6-0.4s4-0.8,6-1.1
	c2-0.3,4-0.4,6-0.1c2,0.3,4,1,6,0.9s4-1,6-1.6c2-0.5,4-0.7,6-0.3s4,1.3,6,1.9c2,0.7,4,1.1,6,0.9c2-0.2,4-1,6-1.2s4,0.2,6-0.5
	c2-0.7,4-2.6,6-2.8c2-0.2,4,1.3,6,0.8c2-0.5,4-2.9,6-4.3c2-1.4,4-1.6,6-1.8c2-0.1,4-0.1,6,0.5c2,0.6,4,1.9,6,1.9s4-1.3,6-0.1
	c2,1.1,4,4.7,6,6.3c2,1.6,4,1.3,6,1.1c2-0.2,4-0.2,6-0.2c2,0,4,0,6,0.1c2,0.1,4,0.3,6,0.3c2,0,4-0.2,6-0.3c2-0.1,4-0.1,6,0
	c2,0.1,4,0.3,6,0.3c2,0,4-0.2,6-0.4s4-0.1,6-0.1c2,0,4,0,6,0.1c2,0.1,4,0.4,6,0.4s4-0.2,6-0.3c2-0.1,4-0.1,6-0.1c2,0,4,0.2,6,0.2
	c2,0,4,0,6,0c2,0,4,0,6,0c2,0.1,4,0.3,6,0.3c2,0,4-0.2,6-0.3c2-0.1,4-0.2,6-0.3c2-0.1,4-0.1,6-0.1c2,0,4,0,6,0.1s4,0.4,6,0.4
	c2,0,4-0.2,6-0.3c2,0,4,0.1,6,0.2s4-0.1,6-0.2c2-0.1,4-0.1,6-0.1c2,0,4,0.1,6,0.1s4-0.1,6,0c2,0,4,0.2,6.5,0.2
	c8.6,0.1,17-0.2,25.6-0.4c2,0,4,0,6,0c2,0.1,4,0.2,6,0.2c2,0,4-0.1,6-0.3c2-0.1,4-0.3,6-0.4s4,0,6,0.1c2,0.1,4,0.2,6,0.5
	c2,0.2,4,0.5,6,0.1c2-0.4,4-1.6,6-2.1s4-0.3,6-0.2c2,0.1,4,0.1,6,0.1c2,0,4,0,6-0.3c2-0.3,4-1,6-1.4c2-0.4,4-0.5,6-0.5
	c2,0,4,0.2,6-0.6c2-0.8,4-2.4,6-2.5c2,0,4,1.7,6,1.9c2,0.2,4-1,6-1.2c2-0.2,4,0.7,6,0.6c2-0.1,4-1.2,6-0.3c2,1,4,4,6,5.4
	c2,1.4,4,1.1,6,1s4,0.2,6,0.2c2,0,4-0.2,6-0.2c2,0,4,0.2,6,0.3c2,0.1,4-0.1,6-0.2c2-0.1,4-0.2,6-0.1c2,0,4,0.2,6,0.2
	c2,0,4-0.2,6-0.3c2-0.1,4-0.1,6,0.1c2,0.2,4,0.5,6-1.3c2-1.7,4-5.6,6-7.8s4-3,6-3.1s4,0.4,6,1.2c2,0.9,4,2.1,6,2.5c2,0.4,4,0.1,6,0
	c2-0.1,4,0,6,0.9c2,1,4,2.8,6,2.7c2-0.1,4-2.1,6-2.1s4,2,6,2.9c2,0.8,4,0.5,6,0.5c2,0,4,0.4,6-0.5c2-0.9,4-3.1,6-2.5c2,0.6,4,4,6,4
	s4-3.4,6-3.8c2-0.4,4,2.2,6,3.1c2,0.9,4,0.1,6,0.5c2,0.3,4,1.8,6,2.5c2,0.8,4,0.9,6,1c2,0,4,0,6.5-0.2c2.5-0.2,5.5-0.6,11.5,0.3"/>
<path class="st0" d="M0,149.3c0,0,3-0.3,5.5-0.5c2.5-0.2,4.5-0.3,6.5-0.3s4,0.1,6,0.2s4,0.2,6,0.1c2-0.1,4-0.3,6-0.2
	c2,0,4,0.4,6,0.1c2-0.3,4-1.2,6-1.4c2-0.2,4,0.3,6,0.2c2-0.1,4-0.9,6-1.4c2-0.5,4-0.6,6-0.8s4-0.3,6-0.4c2,0,4,0,6,0.7s4,1.9,6,1.9
	s4-1.4,6-1.3c2,0.1,4,1.5,6,1.5s4-1.5,6-1.7c2-0.2,4,0.9,6,1s4-0.7,6-2.2s4-3.8,6-5c2-1.1,4-1.1,6-0.8c2,0.3,4,1,6,2.7
	c2,1.7,4,4.6,6,5.8c2,1.3,4,1,6,0.9s4,0.2,6,0.2c2,0,4-0.2,6-0.3c2,0,4,0.1,6,0.1c2,0,4-0.1,6,0c2,0.1,4,0.3,6,0.4c2,0.1,4,0,6-0.1
	c2-0.1,4-0.1,6-0.1c2,0,4,0.2,6,0.3c2,0.1,4,0.2,6-1.1c2-1.3,4-3.8,6-4.3c2-0.5,4,1.2,6,2.5c2,1.3,4,2.2,6,2.7c2,0.5,4,0.5,6-1
	c2-1.4,4-4.3,6-5.6c2-1.3,4-1,6-1c2,0,4-0.2,6,0.8c2,1.1,4,3.5,6,5s4,1.8,6,0.8c2-1.1,4-3.7,6-5.4c2-1.8,4-2.7,6-3.1s4-0.3,6,1.2
	c2,1.5,4,4.5,6,5.6c2,1.1,4,0.3,6-0.6s4-2,6-2.9c2-0.9,4-1.7,6-0.7c2,1.1,4,4,6,5.5s4,1.7,6,1.7c2,0,4-0.1,6.5-0.2
	c8.4-0.4,17.2-0.6,25.6-0.6c2,0,4,0,6,0.2c2,0.1,4,0.3,6,0.3c2,0,4-0.2,6-0.2c2,0,4,0.1,6,0c2-0.1,4-0.4,6-0.7c2-0.2,4-0.4,6-0.7
	c2-0.3,4-0.8,6-1.2c2-0.3,4-0.5,6-0.7s4-0.3,6,0.2c2,0.5,4,1.6,6,2.3c2,0.7,4,0.9,6,0.1c2-0.7,4-2.4,6-3.2c2-0.8,4-0.7,6-0.7
	c2,0.1,4,0.1,6-0.4c2-0.6,4-1.7,6-0.9c2,0.8,4,3.7,6,4.1c2,0.4,4-1.5,6-3.1c2-1.6,4-2.9,6-2.4c2,0.6,4,3,6,4.6c2,1.6,4,2.4,6,2.6
	c2,0.2,4,0,6-0.2s4-0.1,6-0.2c2,0,4,0,6,0.1c2,0.1,4,0.2,6,0.2c2,0,4-0.1,6,0c2,0.1,4,0.3,6,0.4c2,0,4-0.1,6-0.2c2-0.1,4,0,6-0.1
	c2-0.1,4-0.2,6-0.1c2,0.1,4,0.4,6-1c2-1.5,4-4.7,6-7c2-2.3,4-3.5,6-2.7c2,0.8,4,3.8,6,4.6c2,0.9,4-0.4,6-1.8c2-1.4,4-3,6-2
	c2,1,4,4.6,6,6.2c2,1.6,4,1.2,6,0.5c2-0.7,4-1.8,6-2.5c2-0.7,4-1,6-1.6s4-1.5,6-1.7c2-0.1,4,0.5,6,0.7c2,0.2,4,0,6,1
	c2,1,4,3.3,6,3.8c2,0.6,4-0.6,6-1.9c2-1.4,4-3,6-3.8s4-0.8,6,0.9c2,1.7,4,5.1,6,6.7c2,1.6,4,1.5,6,1.5c2,0,4,0.2,6.5,0.2
	c2.5,0,5.5-0.1,11.5,0.4"/>
<path class="st0" d="M0,136.5c0,0,3-0.5,5.5-0.6S10,136,12,136c2,0,4-0.2,6-0.2s4,0.1,6,0.1c2,0,4,0,6-0.1c2-0.1,4-0.1,6-0.5
	c2-0.3,4-0.9,6-1.2c2-0.3,4-0.4,6,0c2,0.4,4,1.4,6,1.3c2-0.1,4-1.2,6-1.4c2-0.2,4,0.5,6,1c2,0.4,4,0.5,6,0s4-1.5,6-1.8
	c2-0.3,4,0,6,0.7c2,0.7,4,1.7,6,1.2c2-0.5,4-2.4,6-3.9c2-1.5,4-2.7,6-2.2c2,0.5,4,2.8,6,2.9c2,0.1,4-1.9,6-3.3c2-1.4,4-2.1,6-1.2
	c2,0.8,4,3.2,6,4.9c2,1.8,4,3,6,3.5c2,0.5,4,0.4,6,0.2c2-0.2,4-0.3,6-0.3c2,0,4,0.1,6,0.3c2,0.1,4,0.2,6,0.1c2-0.1,4-0.3,6-0.4
	c2-0.1,4-0.1,6,0c2,0.1,4,0.2,6,0.2c2,0,4-0.2,6-0.1c2,0,4,0.3,6,0.5c2,0.2,4,0.2,6-0.2c2-0.4,4-1.3,6-2.7s4-3.1,6-4.1
	c2-1,4-1.4,6-2.3c2-1,4-2.5,6-2.7c2-0.2,4,0.9,6,1.9c2,1,4,1.8,6,2.1c2,0.3,4,0,6,0.7c2,0.7,4,2.3,6,2.1s4-2.3,6-2.1
	c2,0.2,4,2.6,6,3c2,0.3,4-1.4,6-2.7s4-2.1,6-2.4c2-0.2,4,0.1,6,0c2,0,4-0.5,6,0.9c2,1.3,4,4.4,6,4.5c2,0,4-2.9,6-2.8
	c2,0.1,4,3.3,6,4.8c2,1.6,4,1.5,6,1.5c2,0,4,0.1,6.5,0.1c8.5-0.1,17,0.6,25.6,0.3c2-0.1,4-0.3,6-0.4c2,0,4,0.1,6,0.1
	c2,0,4-0.1,6-0.4c2-0.3,4-0.7,6-1.1c2-0.3,4-0.5,6-0.4c2,0.1,4,0.4,6,0.5c2,0.1,4,0,6,0.3c2,0.3,4,1,6,0.6s4-1.8,6-2.4
	c2-0.6,4-0.3,6-0.2c2,0.1,4,0.1,6,0.6c2,0.5,4,1.4,6,2c2,0.6,4,0.9,6,0.6c2-0.3,4-1.2,6-2.5c2-1.3,4-3,6-4.3c2-1.3,4-2.2,6-2.2
	c2,0,4,0.9,6,1.1c2,0.2,4-0.3,6-0.5c2-0.2,4-0.2,6,1.3c2,1.5,4,4.6,6,5.9c2,1.4,4,1.1,6,1c2-0.1,4-0.1,6-0.1c2,0,4,0,6,0
	c2,0,4,0,6,0c2,0,4,0.1,6,0.1c2,0,4,0,6,0c2,0,4,0.1,6,0c2,0,4-0.1,6,0c2,0.1,4,0.3,6,0.5c2,0.2,4,0.2,6-0.6c2-0.9,4-2.7,6-4.9
	s4-5,6-4.9c2,0.1,4,3,6,3.9c2,0.9,4-0.4,6-1.9c2-1.5,4-3.4,6-3.2c2,0.3,4,2.7,6,4.4c2,1.7,4,2.8,6,3.7s4,1.7,6,1.7s4-0.8,6-1.2
	s4-0.4,6-1.2c2-0.8,4-2.5,6-2.5c2,0,4,1.6,6,1.4c2-0.2,4-2.3,6-2.8c2-0.5,4,0.4,6,1.9s4,3.3,6,3.3s4-1.9,6-1.8c2,0,4,2,6,3
	c2,1,4,1,6,1.1c2,0.1,4,0.2,6.5,0.1c2.5,0,5.5-0.2,11.5,0.6"/>
<path class="st0" d="M0,123.7c0,0,3-0.3,5.5-0.4s4.5,0,6.5-0.1s4-0.3,6-0.4c2-0.1,4,0,6,0s4,0,6-0.3s4-0.7,6-1c2-0.3,4-0.5,6-0.1
	c2,0.3,4,1.2,6,1.7s4,0.5,6,0.6c2,0,4,0,6-0.2c2-0.2,4-0.6,6-0.9c2-0.3,4-0.6,6-0.7c2-0.1,4,0,6-0.4c2-0.3,4-1,6-1.6
	c2-0.6,4-1,6-0.7s4,1.5,6,0.6c2-0.9,4-3.8,6-4.8c2-1,4-0.1,6,0c2,0.1,4-0.6,6,0.5c2,1.1,4,3.9,6,5.4c2,1.4,4,1.4,6,1.6
	c2,0.2,4,0.6,6,0.6c2,0,4-0.3,6-0.4c2-0.1,4-0.1,6-0.1c2,0,4,0,6,0.1c2,0,4,0.1,6,0.2c2,0.1,4,0.1,6,0.1c2,0,4-0.2,6-0.2
	c2,0,4,0.1,6,0.1c2,0,4-0.2,6-0.1c2,0,4,0.3,6,0.5c2,0.2,4,0.2,6-1.7c2-1.9,4-5.7,6-7.4c2-1.7,4-1.2,6-1.6c2-0.4,4-1.6,6,0.1
	c2,1.7,4,6.3,6,6.2c2-0.1,4-4.9,6-5.1c2-0.2,4,4.2,6,5.1c2,1,4-1.5,6-2.6c2-1.1,4-0.8,6-1.1s4-1.2,6-0.6c2,0.7,4,3,6,3.1
	c2,0.1,4-1.9,6-2.3c2-0.4,4,0.9,6,1.4c2,0.5,4,0.2,6,1.1c2,1,4,3.3,6,2.9s4-3.5,6-4.3c2-0.8,4,0.7,6,2.1c2,1.4,4,2.7,6,3.5
	c2,0.8,4,1.1,6,1.2c2,0.1,4,0,6.5-0.2c8.4-0.6,17.1-0.1,25.6-0.4c2-0.1,4-0.1,6,0c2,0.1,4,0.3,6,0.3c2,0,4-0.1,6-0.4
	c2-0.3,4-0.7,6-1c2-0.2,4-0.2,6,0.1c2,0.3,4,0.9,6,1.3c2,0.3,4,0.4,6-0.2c2-0.6,4-1.9,6-2.3s4,0.3,6,0.6c2,0.3,4,0.4,6-0.1
	c2-0.5,4-1.6,6-1.5c2,0.1,4,1.5,6,2.3c2,0.9,4,1.3,6,1.2c2-0.1,4-0.7,6-2.3c2-1.6,4-4.3,6-5.4c2-1.1,4-0.7,6-0.8c2-0.1,4-0.8,6,0.2
	c2,1,4,3.7,6,5.2c2,1.5,4,2,6,2.3c2,0.4,4,0.8,6,0.8c2,0,4-0.2,6-0.3s4,0.2,6,0.2c2,0,4-0.2,6-0.2c2,0,4,0.2,6,0.3
	c2,0.1,4,0.1,6,0.1c2,0,4,0.1,6,0.1c2,0,4,0,6-0.1c2-0.1,4-0.4,6-0.4c2,0,4,0.3,6,0.4c2,0.2,4,0.2,6-1.7c2-1.9,4-5.7,6-6.3
	c2-0.6,4,1.9,6,3c2,1.1,4,0.8,6,0c2-0.8,4-2,6-3.7c2-1.7,4-3.7,6-3.6c2,0.1,4,2.4,6,4.3c2,1.8,4,3.2,6,4.1s4,1.3,6,0.3s4-3.2,6-3.8
	c2-0.6,4,0.6,6,0.3c2-0.2,4-1.8,6-2.6c2-0.8,4-0.8,6,0.6c2,1.4,4,4.1,6,4.9c2,0.8,4-0.3,6-1.2c2-0.9,4-1.5,6-2.1s4-1.1,6,0.1
	c2,1.1,4,3.9,6,5.4c2,1.5,4,1.8,6,1.9c2,0.1,4,0,6.5-0.2c2.5-0.2,5.5-0.5,11.5-0.5"/>
<path class="st0" d="M0,110.9c0,0,3-0.4,5.5-0.6s4.5-0.3,6.5-0.3c2,0,4-0.1,6,0s4,0.1,6,0.1s4,0,6-0.3s4-0.7,6-1c2-0.3,4-0.4,6-0.4
	c2,0.1,4,0.3,6,0.4c2,0.1,4,0,6-0.1c2-0.1,4-0.3,6,0s4,0.9,6,0.6c2-0.3,4-1.6,6-2.1c2-0.5,4-0.2,6-0.1c2,0.1,4-0.1,6,0.5
	c2,0.6,4,2,6,2.1c2,0.1,4-1.2,6-1.4c2-0.2,4,0.6,6-0.5c2-1.1,4-4.2,6-5.3s4-0.2,6,1.4c2,1.5,4,3.7,6,4.2s4-0.7,6-0.5
	c2,0.2,4,1.8,6,2.4c2,0.7,4,0.4,6,0.3s4-0.2,6-0.2c2,0,4-0.1,6,0c2,0.1,4,0.3,6,0.3c2,0,4-0.2,6-0.3c2-0.1,4,0,6,0
	c2,0.1,4,0.2,6,0.2c2,0,4-0.2,6-0.1c2,0,4,0.3,6,0.5c2,0.2,4,0.2,6-1.4c2-1.6,4-4.9,6-4.9s4,3.3,6,2.6c2-0.7,4-5.3,6-7.5
	c2-2.3,4-2.3,6-1.5c2,0.7,4,2.1,6,2.6c2,0.5,4,0.2,6,0.4c2,0.2,4,0.8,6,0.9c2,0.1,4-0.3,6-0.6c2-0.3,4-0.6,6-0.6c2-0.1,4,0,6,0.2
	c2,0.2,4,0.5,6,1.1s4,1.4,6,1.8c2,0.4,4,0.4,6-0.2c2-0.6,4-1.9,6-2.3s4,0.1,6,0.3c2,0.2,4,0.2,6,1.7c2,1.4,4,4.3,6,5.8s4,1.7,6,1.8
	c2,0.1,4,0,6.5-0.1c8.5-0.4,17.1-0.5,25.6-0.6c2,0,4-0.1,6,0c2,0.1,4,0.3,6,0.4c2,0,4-0.2,6-0.3c2-0.1,4-0.1,6-0.4
	c2-0.2,4-0.7,6-0.6c2,0.1,4,0.7,6,1.1c2,0.4,4,0.5,6,0.4c2-0.2,4-0.6,6-1.3s4-1.7,6-1.9c2-0.2,4,0.2,6,0.1c2-0.2,4-0.9,6-0.7
	c2,0.2,4,1.4,6,1.4c2,0,4-1.2,6-2c2-0.8,4-1.1,6-1.2c2-0.1,4,0,6-0.5c2-0.5,4-1.6,6-2.4c2-0.7,4-1.1,6-1.1c2,0,4,0.3,6,1.4
	c2,1.1,4,3,6,4.5c2,1.5,4,2.7,6,3.3c2,0.5,4,0.4,6,0.3c2-0.1,4-0.3,6-0.3c2,0,4,0.1,6,0.1c2,0,4,0,6,0c2,0,4,0.1,6,0.1
	c2,0,4-0.2,6-0.2c2,0,4,0,6,0c2,0,4-0.1,6-0.2c2-0.1,4-0.1,6,0.1c2,0.2,4,0.5,6-1.3c2-1.7,4-5.6,6-7.3c2-1.8,4-1.5,6,0.4
	s4,5.5,6,5.9c2,0.4,4-2.4,6-3c2-0.5,4,1.3,6,0.9c2-0.4,4-2.9,6-3.7c2-0.8,4,0.2,6,0.5s4,0.1,6,0c2-0.1,4-0.1,6-0.1s4,0,6,1.2
	c2,1.2,4,3.7,6,4.9c2,1.2,4,1.2,6,0.3c2-0.9,4-2.8,6-3.4c2-0.6,4,0.1,6-0.4c2-0.5,4-2.2,6-1.6s4,3.4,6,5c2,1.5,4,1.7,6,1.9
	c2,0.2,4,0.4,6,0.4c2,0,4-0.2,6.5-0.4c2.5-0.2,5.5-0.4,11.5,0.5"/>
<path class="st0" d="M0,98.1c0,0,3-0.5,5.5-0.7s4.5-0.2,6.5-0.2c2,0,4,0,6,0s4,0.2,6,0.3s4,0.2,6-0.1s4-1,6-1.2c2-0.2,4,0.2,6,0.1
	c2-0.1,4-0.5,6-0.9s4-0.6,6-0.7c2-0.1,4-0.1,6-0.3c2-0.2,4-0.5,6-0.1c2,0.4,4,1.5,6,2.3c2,0.7,4,1.1,6,0.4s4-2.4,6-3.2
	c2-0.9,4-0.9,6-0.2s4,2.1,6,1.4c2-0.8,4-3.7,6-5.3s4-1.7,6-1.4c2,0.3,4,1.2,6,1.1c2-0.1,4-1,6-1.3c2-0.2,4,0.2,6,2
	c2,1.8,4,4.8,6,6.2c2,1.4,4,1.1,6,1s4-0.1,6-0.1c2,0,4,0,6,0.1c2,0.1,4,0.3,6,0.4c2,0.1,4,0.1,6,0.1c2,0,4,0.1,6,0.1
	c2,0,4-0.2,6-0.3c2-0.1,4-0.2,6-0.3s4-0.1,6,0.1c2,0.2,4,0.5,6,0.2c2-0.3,4-1.2,6-1.8c2-0.6,4-1,6-2.8c2-1.8,4-5.2,6-4.6
	c2,0.6,4,5.2,6,5.3c2,0.1,4-4.4,6-5.2c2-0.8,4,2,6,2.8c2,0.8,4-0.5,6-1.1c2-0.6,4-0.6,6,0.4c2,1,4,3,6,2.8c2-0.2,4-2.7,6-3.7
	c2-1,4-0.6,6-0.4c2,0.2,4,0.2,6-0.1c2-0.3,4-0.8,6-0.5c2,0.3,4,1.4,6,1.8c2,0.4,4,0.1,6-0.5c2-0.6,4-1.6,6-0.4c2,1.2,4,4.6,6,6.2
	s4,1.5,6,1.5c2,0,4,0.2,6.5,0.1c8.5-0.2,17.1-0.4,25.6-0.4c2,0,4,0,6,0.1c2,0.1,4,0.4,6,0.4c2,0,4-0.1,6-0.2c2-0.1,4-0.2,6-0.4
	c2-0.2,4-0.6,6-0.5c2,0.1,4,0.5,6,0.5c2,0,4-0.5,6-1c2-0.5,4-0.9,6-1.3c2-0.4,4-0.7,6-0.9c2-0.2,4-0.3,6-0.4c2,0,4,0.1,6-0.1
	c2-0.1,4-0.5,6-0.6c2-0.1,4,0,6,0.3c2,0.2,4,0.6,6,0.2c2-0.4,4-1.6,6-1.9c2-0.3,4,0.3,6,0.5c2,0.2,4-0.2,6,0.2c2,0.4,4,1.4,6,1.3
	c2-0.2,4-1.5,6-0.9c2,0.6,4,3.2,6,4.3c2,1.2,4,0.9,6,0.8s4-0.2,6-0.2c2,0,4,0.2,6,0.3c2,0.1,4,0,6,0c2-0.1,4-0.2,6-0.2
	c2,0,4,0,6,0.1c2,0.1,4,0.3,6,0.3c2,0,4-0.2,6-0.4c2-0.1,4-0.1,6,0c2,0.2,4,0.5,6,0.2c2-0.3,4-1.2,6-3.4c2-2.2,4-5.6,6-5.9
	s4,2.4,6,3.1c2,0.7,4-0.5,6-0.2c2,0.3,4,2.1,6,3.5c2,1.4,4,2.4,6,1.8c2-0.6,4-2.9,6-4.7c2-1.8,4-3,6-2.2c2,0.7,4,3.4,6,3.6
	c2,0.2,4-2,6-2.8c2-0.7,4,0.1,6,0.2c2,0.1,4-0.5,6,0.3c2,0.7,4,2.8,6,2.8s4-2,6-2.8c2-0.7,4-0.2,6-0.5s4-1.5,6-0.5c2,1.1,4,4.4,6,6
	c2,1.6,4,1.5,6,1.5c2,0,4,0.1,6.5,0.1c2.5,0,5.5,0,11.5-0.4"/>
<path class="st0" d="M0,405.3c0,0,3-0.5,5.5-0.6s4.5,0.1,6.5,0.1s4-0.2,6-0.3s4,0,6,0s4,0,6,0.1c2,0,4,0.1,6-0.1c2-0.3,4-0.9,6-1
	c2-0.1,4,0.2,6,0.6c2,0.4,4,0.8,6,0.6c2-0.2,4-1.1,6-1.5s4-0.3,6-0.2c2,0.1,4,0.2,6-0.2s4-1.5,6-2s4-0.4,6-0.3c2,0,4,0,6-0.9
	c2-1,4-2.9,6-3.2c2-0.3,4,0.9,6,1c2,0.1,4-0.9,6-0.1c2,0.7,4,3.2,6,4.6c2,1.4,4,1.8,6,0.5c2-1.4,4-4.5,6-4.3c2,0.2,4,3.7,6,5.4
	c2,1.7,4,1.6,6,1.4s4-0.3,6-0.3c2,0,4,0.1,6,0.2c2,0.1,4,0.2,6,0.1c2-0.1,4-0.3,6-0.2c2,0,4,0.3,6,0.4c2,0.1,4,0.1,6,0
	c2-0.1,4-0.2,6-0.2c2,0,4,0.1,6,0.1c2,0,4-0.2,6-0.2c2,0,4,0.2,6,0.2c2,0,4-0.1,6-0.2c2-0.1,4-0.3,6-0.3c2,0,4,0.1,6,0.2
	c2,0.1,4,0.1,6,0.1c2-0.1,4-0.3,6-0.4c2-0.1,4-0.1,6,0c2,0.1,4,0.1,6,0.1c2,0,4-0.1,6,0c2,0.1,4,0.3,6,0.4c2,0,4-0.1,6-0.1
	s4,0.2,6,0.2c2,0,4-0.3,6-0.4c2-0.1,4-0.1,6-0.2c2,0,4-0.1,6-0.1c2,0,4,0,6,0.1c2,0.1,4,0.1,6,0.1c2,0,4-0.1,6-0.1
	c2,0,4,0.1,6.5,0.1c10.6,0.2,21.1,0.4,31.6,0.1c2,0,4,0,6-0.1c2-0.1,4-0.2,6-0.4c2-0.3,4-0.6,6-0.6c2,0,4,0.5,6,0.8
	c2,0.3,4,0.5,6,0.1c2-0.4,4-1.5,6-2.1c2-0.6,4-0.8,6-0.8c2,0,4,0.1,6,0.1c2,0.1,4,0.1,6-0.1c2-0.2,4-0.7,6-0.9c2-0.2,4-0.2,6-0.2
	c2,0,4-0.2,6,0.2c2,0.4,4,1.2,6,1c2-0.3,4-1.7,6-2.4c2-0.7,4-0.7,6,0c2,0.7,4,2.1,6,3.3c2,1.1,4,2,6,1.4c2-0.6,4-2.7,6-3.1
	c2-0.4,4,0.9,6,0.6c2-0.3,4-2,6-3.4c2-1.3,4-2.3,6-1.4c2,0.9,4,3.6,6,3.8c2,0.2,4-2,6-2.2c2-0.2,4,1.7,6,1.4c2-0.2,4-2.6,6-3.7
	c2-1.1,4-1.1,6-1c2,0.1,4,0.2,6,0.4c2,0.2,4,0.5,6,0.8c2,0.3,4,0.5,6,0.5c2,0,4-0.2,6-0.1c2,0.1,4,0.6,6,0.5s4-0.8,6-1.3
	c2-0.5,4-0.8,6-0.9c2-0.1,4-0.1,6,1.6c2,1.7,4,5.1,6,6.9c2,1.8,4,1.9,6,1.9c2,0,4-0.1,6-0.2s4-0.3,6-0.3s4,0.3,6,0.4
	c2,0,4-0.1,6-0.2c2,0,4,0.2,6,0.2c2,0.1,4,0,6-0.1s4-0.3,6-0.4s4,0.1,6,0.2s4,0.1,6,0.1c2,0,4-0.1,6-0.1c2-0.1,4-0.2,6-0.2
	c2,0,4,0.3,6.5,0.3c2.5,0,5.5-0.2,11.5-0.6"/>
<path class="st0" d="M0,392.5c0,0,3-0.3,5.5-0.5c2.5-0.2,4.5-0.4,6.5-0.4c2-0.1,4,0,6,0.1s4,0.3,6,0.3s4-0.1,6-0.5
	c2-0.3,4-0.9,6-1.2c2-0.3,4-0.5,6-0.2c2,0.2,4,0.8,6,0.7c2-0.1,4-0.9,6-1.1c2-0.2,4,0,6,0.4s4,0.7,6,0.9c2,0.3,4,0.4,6,0.7
	c2,0.3,4,0.6,6-0.9s4-4.7,6-6.5c2-1.8,4-2,6-2.1s4-0.2,6,0c2,0.2,4,0.7,6,0.9s4,0.2,6,1.6c2,1.3,4,4,6,4.1c2,0.1,4-2.3,6-3.9
	c2-1.6,4-2.3,6-0.9c2,1.4,4,4.9,6,6.6c2,1.6,4,1.4,6,1.3s4-0.2,6-0.2c2,0,4,0,6,0.1c2,0.1,4,0.2,6,0.1c2,0,4-0.1,6-0.1
	c2,0,4,0,6,0.1c2,0.1,4,0.3,6,0.3c2,0,4-0.3,6-0.3s4,0.3,6,0.3c2,0,4-0.3,6-0.3c2,0,4,0.3,6,0.3s4-0.2,6-0.3c2-0.1,4-0.1,6-0.1
	c2,0,4,0,6,0c2,0,4,0,6,0c2,0,4,0.1,6,0.1c2,0,4,0,6,0c2,0,4,0.2,6,0.2s4-0.2,6-0.3c2-0.1,4-0.1,6-0.1c2,0,4,0,6,0.1
	c2,0.1,4,0.4,6,0.5c2,0.1,4,0.1,6,0c2-0.1,4-0.2,6-0.3s4-0.1,6-0.1c2,0,4,0.1,6,0.1c2,0.1,4,0.1,6,0.1c2,0,4-0.1,6-0.1
	c2,0,4,0.2,6.5,0.2c6.3,0.1,12.8,0.4,19.1-0.2c2.5-0.2,4.5-0.2,6.5-0.2c2,0,4,0,6,0.1c2,0.1,4,0.3,6,0.4c2,0,4-0.2,6-0.4
	c2-0.2,4-0.5,6-0.4c2,0.2,4,0.7,6,0.8c2,0.1,4-0.4,6-0.4c2,0,4,0.4,6,0c2-0.4,4-1.8,6-2.2c2-0.5,4-0.1,6-0.2c2-0.1,4-0.8,6-0.9
	c2-0.1,4,0.4,6,0.5c2,0.1,4,0,6-0.3c2-0.3,4-0.7,6-0.2c2,0.6,4,2.2,6,2.4c2,0.2,4-1,6-1.6c2-0.6,4-0.7,6-0.7c2,0,4,0.1,6-0.1
	c2-0.2,4-0.5,6-0.9c2-0.4,4-0.7,6,0.1c2,0.9,4,2.9,6,2.7c2-0.3,4-2.8,6-4c2-1.1,4-0.8,6-1.3c2-0.5,4-1.7,6-0.8c2,0.9,4,4.1,6,4.1
	c2,0,4-3.1,6-4.7c2-1.6,4-1.6,6-0.6c2,1,4,2.9,6,2.9c2,0,4-2,6-2.8c2-0.8,4-0.5,6,0.6c2,1.2,4,3.2,6,3.9c2,0.7,4-0.1,6-0.6
	s4-0.9,6-1.2s4-0.6,6-1.2c2-0.6,4-1.4,6-1.8c2-0.5,4-0.6,6,1c2,1.6,4,4.9,6,6.5c2,1.6,4,1.6,6,1.6s4,0.1,6,0.1c2,0,4-0.1,6-0.2
	c2-0.1,4-0.1,6,0c2,0,4,0.1,6,0.3c2,0.1,4,0.3,6,0.3c2,0,4-0.2,6-0.3s4-0.2,6-0.2s4,0,6,0c2,0.1,4,0.2,6,0.2c2,0.1,4,0.1,6,0.2
	c2,0.1,4,0.3,6,0.2c2,0,4-0.2,6.5-0.3c2.5-0.1,5.5-0.1,11.5,0.4"/>
<path class="st0" d="M0,379.7c0,0,3-0.4,5.5-0.6s4.5-0.3,6.5-0.3c2,0,4-0.1,6,0c2,0.1,4,0.3,6,0.5s4,0.1,6,0s4-0.3,6-0.3
	c2,0,4,0.3,6,0.3c2,0,4-0.3,6-0.3s4,0.4,6-0.1c2-0.5,4-1.8,6-2.4c2-0.6,4-0.6,6-0.7c2-0.1,4-0.5,6-0.2s4,1.2,6,0.2s4-3.8,6-4.4
	c2-0.6,4,0.9,6,1c2,0.1,4-1.2,6-0.2c2,1,4,4.2,6,4.2s4-3.5,6-5.2c2-1.8,4-1.8,6-1.8c2,0.1,4,0.3,6,0.9s4,1.6,6,3.2
	c2,1.6,4,3.9,6,4.9c2,1,4,0.8,6,0.6s4-0.2,6-0.2c2,0,4,0,6,0.1c2,0.1,4,0.3,6,0.4c2,0.1,4,0.1,6,0.1c2,0,4,0.1,6,0.1
	c2,0,4-0.1,6-0.2c2-0.1,4-0.3,6-0.4s4-0.1,6,0c2,0,4,0.1,6,0.3c2,0.1,4,0.3,6,0.3c2,0,4-0.3,6-0.4c2-0.1,4-0.1,6-0.1
	c2,0.1,4,0.2,6,0.3c2,0.1,4,0.2,6,0.2c2,0,4,0,6-0.1c2-0.1,4-0.2,6-0.2c2,0,4,0.1,6,0.1c2,0,4-0.2,6-0.3c2-0.1,4-0.1,6-0.1
	c2,0,4,0.1,6,0.3s4,0.3,6,0.4c2,0.1,4,0,6-0.1c2-0.1,4-0.3,6-0.4c2-0.1,4,0,6,0.1c2,0.1,4,0.3,6,0.3c2,0,4-0.1,6-0.1s4-0.2,6-0.1
	c2,0,4,0.2,6.5,0.1c8.4-0.2,17.2-0.2,25.6,0.2c2,0.1,4,0,6,0c2,0,4,0.1,6,0c2,0,4-0.2,6-0.1c2,0,4,0.3,6,0c2-0.3,4-1.3,6-1.4
	c2-0.1,4,0.6,6,0.5c2-0.1,4-1,6-1.1c2-0.1,4,0.6,6,0.4s4-1.1,6-0.9c2,0.2,4,1.7,6,2.1c2,0.4,4-0.2,6-0.4c2-0.2,4,0,6-0.6
	c2-0.6,4-1.9,6-2.3c2-0.4,4,0,6-0.1c2-0.2,4-0.9,6-1c2-0.1,4,0.5,6,0.4c2-0.1,4-1,6-0.7c2,0.2,4,1.6,6,1.4c2-0.3,4-2.1,6-2.1
	c2,0,4,2,6,2.4c2,0.4,4-0.7,6-2.1c2-1.4,4-3,6-2c2,1,4,4.5,6,5.5c2,1,4-0.6,6-2.4c2-1.8,4-3.7,6-4.7c2-1,4-1,6,0c2,1,4,2.9,6,2.9
	c2,0,4-2,6-2.1c2-0.2,4,1.4,6,3.2c2,1.8,4,3.7,6,3.9c2,0.2,4-1.4,6-3.2s4-3.7,6-4.6c2-0.8,4-0.5,6-0.4s4,0.1,6,0c2-0.1,4-0.4,6,1.2
	c2,1.6,4,4.9,6,6.5c2,1.6,4,1.5,6,1.4c2,0,4,0.1,6,0.1c2,0,4-0.1,6-0.2s4-0.1,6,0c2,0,4,0.1,6,0.3c2,0.1,4,0.3,6,0.2
	c2,0,4-0.3,6-0.4c2-0.1,4,0,6,0s4-0.1,6,0s4,0.3,6,0.4c2,0.1,4,0,6,0.1c2,0.1,4,0.2,6,0.2c2,0,4-0.2,6.5-0.4
	c2.5-0.2,5.5-0.4,11.5,0.5"/>
<path class="st0" d="M0,366.9c0,0,3-0.5,5.5-0.7C8,366,10,366,12,366.1s4,0.2,6,0.3s4,0.1,6,0.1c2,0,4,0.1,6-0.2c2-0.3,4-0.9,6-1.3
	c2-0.4,4-0.5,6-0.4c2,0.1,4,0.4,6,0.5c2,0.1,4,0,6-0.2c2-0.1,4-0.3,6-0.5s4-0.4,6-0.8c2-0.3,4-0.8,6-1.1s4-0.5,6-0.4
	c2,0.2,4,0.7,6-0.2c2-0.9,4-3.2,6-4.3c2-1.1,4-1,6,0c2,1,4,2.8,6,3.5c2,0.7,4,0.4,6-0.6s4-2.5,6-2.3c2,0.2,4,2.1,6,2.7
	c2,0.6,4-0.1,6,0.7c2,0.8,4,3.1,6,4.1c2,1.1,4,0.9,6,0.9c2-0.1,4,0,6-0.1c2-0.1,4-0.2,6-0.3c2-0.1,4-0.1,6,0c2,0,4,0.1,6,0.1
	c2,0,4,0,6,0c2,0,4,0.1,6,0c2,0,4-0.1,6-0.2s4-0.1,6-0.1c2,0,4,0,6,0.1c2,0.1,4,0.4,6,0.5s4-0.2,6-0.3c2-0.1,4-0.2,6-0.2
	c2,0,4,0,6,0.1c2,0,4,0,6,0c2,0,4,0.1,6,0.2c2,0.1,4,0.3,6,0.3c2,0,4-0.2,6-0.3c2-0.1,4-0.3,6-0.3c2-0.1,4-0.1,6-0.1c2,0,4,0,6,0.1
	s4,0.4,6,0.4c2,0,4-0.2,6-0.3c2-0.1,4-0.1,6-0.1s4,0,6,0.1c2,0.1,4,0.2,6,0.3c2,0,4-0.1,6-0.2s4-0.2,6-0.1c2,0,4,0.2,6.5,0.2
	c10.6,0.1,21-0.5,31.6-0.4c2,0,4,0.1,6,0.1c2,0,4,0,6,0.1c2,0,4,0.1,6-0.2s4-1.1,6-1.5c2-0.4,4-0.6,6-0.7c2-0.1,4-0.2,6,0.1
	c2,0.3,4,1,6,0.8s4-1.1,6-1.7c2-0.6,4-0.7,6-0.4c2,0.3,4,1.1,6,1c2-0.1,4-1.2,6-1.6c2-0.5,4-0.3,6-0.4c2-0.1,4-0.4,6-0.1
	c2,0.3,4,1.3,6,2.4c2,1,4,2.1,6,2c2-0.1,4-1.5,6-2.3c2-0.9,4-1.2,6-1.9c2-0.7,4-1.8,6-1.5c2,0.2,4,1.8,6,3c2,1.2,4,2,6,1
	s4-3.9,6-4.3c2-0.4,4,1.6,6,1.5c2-0.1,4-2.5,6-2.5c2,0,4,2.3,6,2.8c2,0.5,4-0.9,6-2.1c2-1.2,4-2.1,6-1.8c2,0.3,4,1.9,6,3.3
	c2,1.4,4,2.5,6,2.9c2,0.4,4,0,6-0.6c2-0.6,4-1.3,6-1.5s4,0.2,6,0.3s4,0.2,6-0.4c2-0.6,4-1.9,6-2.4c2-0.5,4-0.2,6,1.1
	c2,1.3,4,3.7,6,4.8c2,1.1,4,1.1,6,1.1s4,0.2,6,0.2c2,0,4-0.2,6-0.3s4-0.1,6-0.1c2,0,4,0.1,6,0.3c2,0.1,4,0.3,6,0.3c2,0,4-0.2,6-0.4
	c2-0.1,4-0.2,6-0.2s4,0,6,0.1s4,0.1,6,0.1c2,0,4-0.1,6-0.1c2,0,4,0,6,0.1c2,0.1,4,0.2,6.5,0.2c2.5-0.1,5.5-0.4,11.5,0.5"/>
<path class="st0" d="M0,354.1c0,0,3-0.4,5.5-0.6s4.5-0.3,6.5-0.3s4,0,6,0s4,0.2,6,0.2c2,0,4-0.1,6-0.2c2-0.1,4-0.1,6-0.2
	c2-0.1,4-0.2,6-0.3c2-0.1,4-0.2,6,0.1s4,0.7,6,0.7c2,0,4-0.4,6-1c2-0.5,4-1.2,6-1.7c2-0.6,4-1.1,6-1.4c2-0.3,4-0.4,6-0.4
	c2,0,4,0.1,6-0.8c2-0.9,4-2.7,6-2.1c2,0.6,4,3.6,6,4.9c2,1.3,4,0.9,6,0.5s4-0.8,6-1c2-0.2,4-0.2,6,0c2,0.2,4,0.6,6-0.5s4-3.8,6-3.4
	c2,0.4,4,3.9,6,5.5c2,1.7,4,1.6,6,1.5c2,0,4,0,6,0c2,0,4-0.1,6-0.1c2,0,4-0.1,6-0.1c2,0,4-0.1,6-0.1c2,0,4-0.1,6,0
	c2,0.1,4,0.3,6,0.3c2,0,4-0.3,6-0.2c2,0,4,0.3,6,0.3c2,0,4-0.1,6-0.1c2,0,4,0.2,6,0.2c2,0,4-0.3,6-0.4c2-0.1,4-0.1,6-0.1
	c2,0,4,0,6,0c2,0.1,4,0.2,6,0.2c2,0.1,4,0,6,0.1c2,0.1,4,0.3,6,0.3c2,0,4-0.1,6-0.2c2-0.1,4-0.3,6-0.4c2-0.1,4-0.1,6-0.1
	c2,0,4,0,6,0.1s4,0.4,6,0.4c2,0,4-0.2,6-0.3c2-0.1,4,0,6,0s4-0.1,6-0.1c2,0,4,0,6,0c2,0,4,0,6,0.1c2,0.1,4,0.4,6,0.5
	c2,0.1,4,0,6.5-0.2c8.4-0.7,17.1-0.3,25.6-0.4c2,0,4,0,6,0.1c2,0.1,4,0.3,6,0.4c2,0.1,4,0.1,6,0.1c2,0,4-0.1,6-0.5s4-1.1,6-1.5
	c2-0.4,4-0.5,6-0.1c2,0.4,4,1.4,6,1.4c2,0.1,4-0.8,6-1.5s4-1.3,6-1.6c2-0.3,4-0.4,6-0.1c2,0.3,4,1,6,1c2,0,4-0.9,6-1.3
	c2-0.5,4-0.6,6-0.3c2,0.2,4,0.8,6,1c2,0.2,4,0,6-0.1c2-0.1,4-0.2,6-0.6c2-0.4,4-1.2,6-1.8c2-0.6,4-1,6-1.2c2-0.1,4,0.1,6,1.2
	c2,1.1,4,3.1,6,4.3c2,1.2,4,1.6,6,0.2s4-4.7,6-5.8c2-1.1,4-0.2,6-0.3c2-0.1,4-1.4,6-1.9c2-0.5,4-0.2,6,1.2c2,1.4,4,3.8,6,3.8
	c2,0,4-2.4,6-2.4c2,0,4,2.4,6,4.1c2,1.6,4,2.5,6,1.2c2-1.2,4-4.5,6-5.9c2-1.4,4-1,6,0s4,2.7,6,2.3s4-2.6,6-3.6c2-1,4-0.8,6-0.5
	c2,0.3,4,0.7,6,2.3c2,1.5,4,4.1,6,5.4c2,1.3,4,1.2,6,1.3s4,0.2,6,0.2c2,0,4-0.2,6-0.3c2-0.1,4-0.1,6-0.1c2,0,4,0.1,6,0.3
	c2,0.1,4,0.3,6,0.3c2,0,4-0.3,6-0.3c2,0,4,0.1,6,0.2s4-0.1,6-0.2c2,0,4,0,6,0c2,0,4,0,6,0.1c2,0.1,4,0.3,6,0.3c2,0,4-0.1,6.5-0.3
	c2.5-0.2,5.5-0.5,11.5-0.5"/>
<path class="st0" d="M0,597.3c0,0,3-0.4,5.5-0.6c2.5-0.2,4.5-0.3,6.5-0.2c2,0,4,0.2,6,0.2s4,0.1,6,0s4-0.2,6-0.4s4-0.6,6-0.9
	c2-0.3,4-0.4,6-0.5c2-0.1,4-0.3,6-0.2c2,0.1,4,0.3,6,0.4c2,0.1,4-0.1,6,0s4,0.5,6,0.3c2-0.2,4-0.9,6-1.2s4-0.4,6-0.6
	c2-0.2,4-0.7,6-1c2-0.3,4-0.3,6,0.5s4,2.6,6,2.7c2,0.1,4-1.3,6-2c2-0.7,4-0.7,6-0.9s4-0.9,6-1.5c2-0.6,4-1.2,6-0.5
	c2,0.7,4,2.8,6,3.6c2,0.8,4,0.4,6-0.6c2-1,4-2.5,6-3.2c2-0.7,4-0.5,6-0.9c2-0.4,4-1.3,6-1.5c2-0.2,4,0.4,6,1.4c2,1,4,2.5,6,3.1
	c2,0.6,4,0.2,6-0.8c2-1,4-2.7,6-3.3c2-0.6,4-0.2,6,0.1s4,0.6,6,0.6c2,0,4-0.3,6,0.8c2,1.1,4,3.5,6,4.3c2,0.8,4,0,6-0.6
	c2-0.6,4-1,6-1.9c2-0.9,4-2.4,6-2.6c2-0.2,4,0.9,6,1.1c2,0.1,4-0.8,6-0.4c2,0.4,4,2,6,1.7c2-0.3,4-2.5,6-3.3c2-0.8,4-0.3,6-0.3
	c2,0,4-0.7,6-1c2-0.3,4-0.2,6,0s4,0.5,6,0.7c2,0.2,4,0.2,6,1.1c2,0.9,4,2.8,6,2.8s4-1.9,6-2.9c2-1,4-1.2,6,0.2c2,1.4,4,4.3,6,5.8
	c2,1.5,4,1.5,6,1.6c2,0.1,4,0.2,6.5,0.2c10.6,0.2,21.1-0.3,31.6,0c2,0.1,4,0.1,6,0.1c2,0,4,0.1,6,0c2-0.1,4-0.5,6-0.9
	c2-0.4,4-0.8,6-0.8c2,0,4,0.3,6,0.1c2-0.1,4-0.7,6-1.1c2-0.4,4-0.5,6-0.4s4,0.6,6,0.6c2,0,4-0.6,6-0.2c2,0.4,4,1.6,6,0.7
	c2-0.9,4-4.1,6-4.6c2-0.5,4,1.5,6,1.4c2-0.1,4-2.3,6-2.6c2-0.4,4,1.1,6,2.2c2,1.1,4,1.8,6,1.5c2-0.3,4-1.7,6-2.4c2-0.7,4-0.7,6-0.8
	c2-0.1,4-0.4,6,0.9c2,1.3,4,4.1,6,5.5c2,1.4,4,1.2,6,1.1s4-0.3,6-0.3c2,0,4,0.1,6,0.2c2,0.1,4,0,6,0c2-0.1,4-0.2,6-0.2c2,0,4,0,6,0
	c2,0,4,0.1,6,0.1c2,0,4-0.1,6,0c2,0.1,4,0.3,6,0.3c2,0,4-0.3,6-0.3c2,0,4,0.3,6,0.4c2,0.1,4,0,6-0.2c2-0.2,4-0.3,6-0.4s4-0.1,6,0
	c2,0.1,4,0.2,6,0.2c2,0.1,4,0,6,0c2,0,4-0.1,6-0.1s4,0.1,6,0.1s4-0.1,6-0.2c2-0.1,4-0.1,6-0.1c2,0,4,0,6,0.1c2,0.2,4,0.5,6,0.5
	c2,0,4-0.3,6-0.3s4,0.1,6,0.1c2,0,4-0.2,6-0.2c2,0,4,0.1,6,0.1c2,0,4-0.1,6-0.1c2,0,4,0,6,0c2,0.1,4,0.2,6.5,0.2
	c2.5,0,5.5,0,11.5-0.4"/>
<path class="st0" d="M0,584.5c0,0,3-0.4,5.5-0.6s4.5-0.3,6.5-0.3s4-0.1,6,0s4,0.1,6,0.1c2,0,4,0,6-0.2s4-0.7,6-0.9
	c2-0.3,4-0.4,6-0.6c2-0.2,4-0.4,6,0c2,0.4,4,1.5,6,1.3c2-0.1,4-1.4,6-1.7s4,0.4,6,0.7c2,0.3,4,0.3,6-0.1c2-0.4,4-1.1,6-1.6
	c2-0.5,4-0.8,6-0.1c2,0.7,4,2.4,6,2.1c2-0.2,4-2.3,6-2.3c2,0,4,2.1,6,2s4-2.4,6-3.5s4-1.2,6-0.6c2,0.7,4,2.1,6,2s4-1.9,6-2.9
	c2-1,4-1.3,6-1.3c2,0,4,0.3,6,0.6s4,0.6,6,1.3c2,0.8,4,2,6,2.9c2,0.9,4,1.6,6,0.7c2-0.9,4-3.2,6-4.5c2-1.3,4-1.5,6-1.5
	c2,0,4,0.2,6,0c2-0.2,4-0.9,6-1.3c2-0.3,4-0.3,6,1c2,1.4,4,4.1,6,4.4c2,0.3,4-1.7,6-2.7c2-1,4-1,6-1c2,0,4,0,6-0.2c2-0.2,4-0.6,6-1
	c2-0.3,4-0.6,6-0.4c2,0.2,4,0.9,6,1c2,0.1,4-0.5,6,0.7c2,1.2,4,4.2,6,4.2s4-3,6-3.8c2-0.8,4,0.7,6,1.1c2,0.4,4-0.2,6,0.1
	c2,0.4,4,1.7,6,1.3c2-0.5,4-2.7,6-3.6c2-0.8,4-0.2,6-0.2c2,0,4-0.7,6-1.1c2-0.3,4-0.3,6,1.3c2,1.6,4,4.9,6,6.5c2,1.6,4,1.7,6,1.7
	c2,0.1,4,0.2,6.5,0.1c12.5-0.2,25.1-0.6,37.6,0.1c2,0.1,4,0.2,6,0.1c2-0.1,4-0.3,6-0.5c2-0.2,4-0.4,6-0.3c2,0.1,4,0.4,6,0.3
	c2-0.1,4-0.7,6-0.8c2-0.2,4,0.1,6,0s4-0.6,6-0.7c2-0.1,4,0.2,6,0.2c2,0,4-0.3,6,0.1c2,0.3,4,1.2,6,1.3c2,0,4-0.8,6-0.8
	c2,0,4,0.8,6-0.3c2-1.1,4-4.2,6-5.5c2-1.3,4-0.8,6,0.3c2,1.1,4,2.9,6,2.6c2-0.2,4-2.5,6-3.7c2-1.2,4-1.4,6,0.1c2,1.5,4,4.8,6,6.2
	c2,1.5,4,1.2,6,1s4-0.1,6-0.2c2,0,4,0,6,0c2,0,4,0.1,6,0.2c2,0.1,4,0.2,6,0.2c2,0,4-0.2,6-0.1c2,0,4,0.2,6,0.2c2,0,4-0.2,6-0.4
	c2-0.1,4-0.1,6-0.2c2,0,4,0,6,0.1c2,0.1,4,0.4,6,0.4c2,0,4-0.3,6-0.4c2-0.1,4-0.1,6-0.1c2,0,4-0.1,6-0.1c2,0,4,0,6,0.1c2,0,4,0,6,0
	c2,0,4,0,6,0.1s4,0.3,6,0.4s4-0.1,6-0.1s4,0.2,6,0.1c2-0.1,4-0.4,6-0.4c2,0,4,0.3,6,0.4c2,0.1,4,0.1,6-0.1s4-0.3,6-0.4s4,0.1,6,0.2
	c2,0,4-0.1,6-0.1c2,0,4,0.1,6,0.1c2,0,4-0.1,6,0c2,0,4,0.2,6.5,0.1c2.5-0.1,5.5-0.3,11.5-0.4"/>
<path class="st0" d="M0,571.7c0,0,3-0.3,5.5-0.4c2.5-0.1,4.5,0,6.5,0s4-0.1,6-0.1s4,0.1,6,0.1s4,0,6-0.2s4-0.7,6-1.1
	c2-0.4,4-0.7,6-0.9c2-0.2,4-0.4,6-0.5s4-0.2,6-0.1c2,0.1,4,0.4,6,0.5s4,0,6,0.1c2,0.1,4,0.4,6,0.3c2-0.1,4-0.7,6-1.2
	c2-0.5,4-1.1,6-1.3c2-0.3,4-0.3,6-0.4s4-0.4,6-0.7c2-0.2,4-0.4,6-0.1c2,0.3,4,1.1,6,1s4-1,6-0.8c2,0.2,4,1.7,6,2c2,0.4,4-0.4,6,0
	c2,0.4,4,1.8,6,1.1c2-0.7,4-3.6,6-4.7s4-0.4,6,1.1c2,1.5,4,3.9,6,3.5c2-0.5,4-3.8,6-5c2-1.3,4-0.6,6-0.2c2,0.4,4,0.4,6,0.7
	c2,0.3,4,0.9,6,0.9c2,0,4-0.6,6-0.3s4,1.7,6,1.3c2-0.5,4-2.8,6-2.6c2,0.2,4,2.9,6,3s4-2.5,6-3.6c2-1.1,4-0.8,6-0.5
	c2,0.3,4,0.5,6,0.8c2,0.2,4,0.5,6,0.2c2-0.3,4-1.1,6,0c2,1.1,4,4.1,6,4c2,0,4-3.1,6-3.1s4,3.1,6,3.1c2,0,4-2.9,6-3.9
	c2-0.9,4,0.2,6,1.3c2,1.1,4,2.2,6,1.7c2-0.5,4-2.5,6-1.9c2,0.6,4,3.9,6,4.1c2,0.2,4-2.6,6-4.3c2-1.6,4-2,6-0.8c2,1.3,4,4.2,6,5.7
	c2,1.5,4,1.5,6,1.6c2,0.1,4,0.2,6.5,0.3c8.5,0.1,17.1,0.4,25.6,0.1c2-0.1,4-0.3,6-0.3c2-0.1,4,0,6,0c2,0,4,0,6-0.2
	c2-0.1,4-0.3,6-0.3c2-0.1,4,0,6-0.3c2-0.3,4-0.9,6-1.3c2-0.4,4-0.4,6,0.1c2,0.5,4,1.7,6,1.6c2,0,4-1.3,6-1.8c2-0.6,4-0.6,6-0.8
	c2-0.3,4-0.8,6-1.6c2-0.8,4-2,6-2.8c2-0.9,4-1.5,6-0.5c2,1,4,3.7,6,4.8c2,1.1,4,0.7,6-0.5c2-1.2,4-3.3,6-3.6c2-0.4,4,0.9,6,2.6
	c2,1.6,4,3.6,6,3c2-0.6,4-3.6,6-3.7c2,0,4,3,6,4.5c2,1.5,4,1.3,6,1.2c2-0.2,4-0.3,6-0.3c2,0,4,0.1,6,0.2c2,0.1,4,0,6,0
	c2,0,4,0.1,6,0c2,0,4-0.2,6-0.3c2,0,4,0,6,0c2,0,4-0.1,6,0c2,0.1,4,0.3,6,0.4c2,0,4-0.1,6-0.1c2,0,4,0.2,6,0.3s4-0.1,6-0.2
	s4-0.3,6-0.3s4-0.1,6-0.1c2,0,4,0.1,6,0.1c2,0,4,0,6,0c2,0,4-0.1,6-0.1s4,0.1,6,0.1c2,0,4-0.1,6-0.2c2-0.1,4-0.1,6,0
	c2,0,4,0.1,6,0.3c2,0.1,4,0.3,6,0.4c2,0.1,4,0,6-0.1s4-0.1,6-0.1s4,0,6-0.1s4-0.2,6-0.3c2-0.1,4-0.1,6-0.1c2,0,4,0,6,0.1
	c2,0.1,4,0.2,6.5,0.1c2.5,0,5.5-0.2,11.5-0.3"/>
<path class="st0" d="M0,558.9c0,0,3-0.3,5.5-0.4s4.5,0,6.5-0.1s4-0.3,6-0.3c2,0,4,0.1,6,0.2c2,0.1,4,0.2,6,0.2s4-0.1,6-0.4
	c2-0.4,4-1.1,6-1c2,0,4,0.8,6,0.9s4-0.6,6-0.9c2-0.4,4-0.5,6-0.9s4-0.9,6-0.8c2,0.1,4,0.9,6,1.1c2,0.3,4,0,6-0.6c2-0.6,4-1.5,6-1
	c2,0.5,4,2.3,6,3s4,0.2,6-0.3c2-0.5,4-1.2,6-2.1s4-2.1,6-2.9s4-1,6,0.2c2,1.1,4,3.7,6,4.9c2,1.3,4,1.3,6-0.1c2-1.4,4-4.2,6-4.7
	c2-0.5,4,1.2,6,2.3c2,1.1,4,1.4,6,1.4c2,0,4-0.5,6-0.8c2-0.3,4-0.3,6-1.5c2-1.2,4-3.6,6-4c2-0.4,4,1.2,6,1.8c2,0.6,4,0.3,6-0.1
	c2-0.4,4-1,6-1.4s4-0.6,6,0.2c2,0.8,4,2.7,6,3.2c2,0.6,4-0.2,6-1.3c2-1.1,4-2.5,6-2.5c2,0,4,1.5,6,1.9c2,0.4,4-0.2,6,0.1
	c2,0.4,4,1.7,6,2.2c2,0.5,4,0.1,6-0.9c2-1,4-2.7,6-3.3c2-0.6,4-0.2,6,0.3s4,1.1,6,0.9c2-0.1,4-0.9,6-1.4c2-0.5,4-0.7,6,0.3
	s4,3,6,3.5c2,0.5,4-0.6,6-0.4c2,0.2,4,1.7,6,2.2c2,0.5,4,0.1,6,0.3c2,0.2,4,1,6,1.5c2,0.5,4,0.8,6,1c2,0.2,4,0.4,6,0.4
	c2,0,4-0.1,6.5-0.3c8.2-0.6,17.4-0.8,25.6-0.4c2,0.1,4,0.2,6,0.3c2,0.1,4,0.1,6,0.1c2,0,4,0.1,6-0.2c2-0.3,4-0.9,6-0.9s4,0.7,6,0.6
	c2-0.2,4-1.2,6-1.7c2-0.5,4-0.6,6-0.1c2,0.5,4,1.7,6,1.5c2-0.1,4-1.6,6-2.3c2-0.7,4-0.7,6-0.5c2,0.1,4,0.3,6,0.8c2,0.5,4,1.3,6,1.7
	c2,0.4,4,0.4,6-0.9c2-1.3,4-4,6-5.3c2-1.3,4-1.3,6-1.5c2-0.2,4-0.6,6-0.9c2-0.2,4-0.3,6,0.9c2,1.1,4,3.5,6,4.5c2,1,4,0.6,6,1.2
	c2,0.6,4,2.2,6,2.9c2,0.7,4,0.6,6,0.6c2,0,4,0,6,0c2,0,4-0.1,6-0.1c2-0.1,4-0.2,6-0.2c2,0,4,0,6,0.1c2,0.1,4,0.3,6,0.4
	c2,0.1,4,0,6-0.1c2-0.1,4-0.4,6-0.5c2-0.1,4-0.1,6-0.1c2,0,4,0,6,0.1c2,0.2,4,0.5,6,0.6c2,0.1,4,0,6-0.1s4-0.3,6-0.3s4,0.1,6,0.1
	c2,0,4-0.1,6-0.1c2,0,4,0.1,6,0.1c2,0,4-0.1,6-0.1s4,0.2,6,0.2s4-0.3,6-0.4c2-0.1,4-0.1,6-0.1c2,0,4,0.1,6,0.3c2,0.2,4,0.4,6,0.4
	c2,0,4-0.3,6-0.4s4-0.1,6-0.2s4-0.1,6-0.1c2,0,4,0.1,6,0.2c2,0.1,4,0.1,6,0c2,0,4-0.1,6-0.1c2,0,4,0.1,6.5,0.1c2.5,0,5.5,0,11.5-0.4
	"/>
<path class="st0" d="M0,546.1c0,0,3-0.3,5.5-0.5c2.5-0.2,4.5-0.3,6.5-0.3s4,0.1,6,0.2s4,0.1,6,0c2,0,4-0.1,6-0.4s4-0.9,6-0.9
	c2-0.1,4,0.3,6,0.5c2,0.3,4,0.4,6,0c2-0.4,4-1.2,6-1.5c2-0.3,4,0,6-0.1s4-0.7,6-0.8c2,0,4,0.5,6,0.5c2,0,4-0.5,6-0.8
	c2-0.3,4-0.4,6-0.6c2-0.1,4-0.3,6-0.6s4-0.7,6-0.2c2,0.5,4,1.8,6,2.9c2,1.1,4,1.8,6,1s4-3.3,6-4.2c2-0.9,4-0.1,6,0.5s4,1.2,6,1.9
	c2,0.7,4,1.4,6,0.5c2-0.9,4-3.4,6-4.8c2-1.4,4-1.7,6-1.8c2-0.2,4-0.3,6,0.1c2,0.4,4,1.3,6,2.9c2,1.6,4,4,6,3.5c2-0.5,4-4,6-5.7
	c2-1.6,4-1.4,6-0.8c2,0.6,4,1.6,6,1.5s4-1.2,6-1.3c2-0.2,4,0.7,6,2c2,1.3,4,3.1,6,2.6c2-0.5,4-3.2,6-4.3c2-1.1,4-0.7,6-0.6
	c2,0,4-0.4,6-0.4c2,0,4,0.4,6,0.4c2,0,4-0.4,6,0.5c2,0.9,4,3.2,6,3.2c2,0,4-2.3,6-3s4,0.2,6,0.2c2,0,4-0.9,6-0.2c2,0.7,4,3,6,4.5
	s4,2.3,6,1.5c2-0.8,4-3.3,6-4c2-0.8,4,0.1,6-0.2c2-0.3,4-1.9,6-2.3c2-0.3,4,0.6,6,2.3c2,1.6,4,3.9,6,5c2,1.2,4,1.2,6,1.2
	c2,0.1,4,0.2,6.5,0.1c8.5-0.2,17.1,0.2,25.6,0.2c2,0,4-0.2,6-0.2c2,0,4,0.1,6,0.1c2,0,4-0.1,6-0.3c2-0.2,4-0.5,6-0.7s4-0.4,6-0.4
	c2,0,4,0.2,6,0c2-0.2,4-0.8,6-0.9c2-0.1,4,0.1,6,0.3c2,0.2,4,0.3,6,0.5c2,0.3,4,0.7,6,0.6c2-0.1,4-0.7,6-1.9c2-1.3,4-3.2,6-4.2
	c2-1,4-1,6-1.3c2-0.3,4-1,6,0c2,1,4,3.7,6,3.8c2,0.1,4-2.5,6-3.8c2-1.3,4-1.3,6-0.9c2,0.4,4,1.2,6,1.8c2,0.6,4,0.9,6,2.1
	c2,1.3,4,3.5,6,4.6c2,1,4,0.8,6,0.6c2-0.2,4-0.2,6-0.3c2,0,4,0,6,0c2,0.1,4,0.2,6,0.3c2,0.1,4,0.2,6,0.1c2,0,4-0.2,6-0.1
	c2,0,4,0.2,6,0.2c2,0,4-0.3,6-0.2c2,0,4,0.3,6,0.3c2,0,4-0.3,6-0.3c2,0,4,0.3,6,0.3s4-0.2,6-0.3s4-0.2,6-0.2c2,0,4,0.2,6,0.3
	c2,0.1,4,0,6,0c2,0,4,0.1,6,0.2c2,0.1,4,0.2,6,0.2s4,0,6-0.1s4-0.2,6-0.3s4-0.3,6-0.3c2,0,4,0.1,6,0.2c2,0.1,4,0.3,6,0.3
	c2,0,4-0.3,6-0.4c2-0.1,4-0.1,6,0c2,0,4,0,6,0s4,0,6,0c2,0,4,0.1,6,0.3c2,0.1,4,0.3,6,0.4c2,0,4-0.2,6.5-0.3
	c2.5-0.1,5.5-0.1,11.5-0.5"/>
<path class="st0" d="M0,533.3c0,0,3-0.5,5.5-0.7c2.5-0.2,4.5-0.2,6.5-0.2s4,0,6,0.2c2,0.1,4,0.3,6,0.3s4-0.2,6-0.3c2-0.1,4-0.1,6,0
	c2,0.1,4,0.3,6,0.2c2-0.1,4-0.5,6-0.4c2,0.1,4,0.6,6,0.4c2-0.2,4-1,6-1.2c2-0.2,4,0.3,6-0.1c2-0.4,4-1.6,6-2.2s4-0.7,6-0.1
	s4,1.9,6,1.9c2,0,4-1.4,6-2.2s4-1.3,6-1.9c2-0.7,4-1.6,6-0.6s4,4.1,6,5.5c2,1.3,4,0.9,6,0.3c2-0.6,4-1.4,6-2.2c2-0.8,4-1.5,6-0.9
	c2,0.6,4,2.5,6,3.4c2,0.8,4,0.6,6,0.5c2-0.1,4-0.2,6-0.1c2,0,4,0.2,6,0.2c2,0,4-0.1,6-0.2c2-0.1,4-0.1,6,0c2,0.1,4,0.4,6,0.4
	c2,0,4-0.1,6-0.3c2-0.1,4-0.2,6-0.3c2-0.1,4-0.1,6,0.1c2,0.2,4,0.5,6-1.5c2-1.9,4-6.1,6-7.9s4-1.2,6-1.1c2,0.1,4-0.4,6-0.9
	c2-0.5,4-1,6,0.8c2,1.8,4,6.1,6,7.7c2,1.7,4,0.8,6-0.6c2-1.4,4-3.2,6-4.4c2-1.1,4-1.6,6-1.5s4,0.8,6,1.5c2,0.8,4,1.7,6,3.1
	c2,1.4,4,3.4,6,3.2s4-2.5,6-4.2c2-1.7,4-2.8,6-2.8c2,0,4,1.1,6,2s4,1.6,6,1.3c2-0.3,4-1.5,6-0.8c2,0.7,4,3.4,6,4.8
	c2,1.4,4,1.6,6,1.6c10.7-0.1,21.4-0.7,32.1-0.7c2,0,4,0,6,0.1c2,0.1,4,0.3,6,0.4c2,0,4-0.1,6-0.1c2,0,4,0,6,0c2,0,4-0.1,6-0.5
	c2-0.4,4-1.3,6-1.5c2-0.2,4,0.1,6,0.1c2,0,4-0.5,6-0.8c2-0.3,4-0.5,6-0.5c2,0,4,0.2,6,0c2-0.2,4-0.7,6-1.3c2-0.5,4-1.1,6-1.2
	c2-0.1,4,0.2,6-0.3c2-0.6,4-2,6-1c2,1,4,4.4,6,4.5c2,0.2,4-2.9,6-4.5c2-1.5,4-1.5,6-1.5c2,0,4,0,6-0.2c2-0.2,4-0.6,6,0.9
	c2,1.5,4,5,6,6.7c2,1.7,4,1.5,6,1.5c2-0.1,4,0,6-0.1c2-0.1,4-0.2,6-0.2c2,0,4,0.2,6,0.2c2,0,4-0.2,6-0.2c2,0,4,0.3,6,0.3
	c2,0,4-0.1,6-0.2c2-0.1,4,0,6-0.1c2-0.1,4-0.2,6-0.2c2-0.1,4-0.1,6,0.1c2,0.1,4,0.4,6,0.4s4-0.3,6-0.4c2-0.1,4-0.1,6,0
	c2,0.1,4,0.2,6,0.2c2,0,4,0,6,0c2,0,4,0.1,6,0c2,0,4-0.2,6-0.2s4,0.1,6,0c2,0,4-0.1,6,0s4,0.3,6,0.4c2,0,4-0.1,6-0.2
	c2,0,4,0.2,6,0.2c2,0.1,4,0,6,0s4-0.1,6-0.1s4,0,6-0.1s4-0.2,6-0.3c2-0.1,4-0.1,6-0.1c2,0,4,0,6,0.1c2,0.1,4,0.2,6.5,0.2
	c2.5-0.1,5.5-0.3,11.5-0.4"/>
<path class="st0" d="M0,520.5c0,0,3-0.5,5.5-0.7c2.5-0.2,4.5-0.2,6.5-0.2s4,0,6,0.1c2,0.1,4,0.3,6,0.3c2,0,4-0.1,6-0.5
	c2-0.3,4-0.9,6-1.2c2-0.3,4-0.5,6-0.6c2-0.1,4-0.3,6,0.2s4,1.5,6,1.6c2,0.1,4-0.8,6-1.1s4-0.2,6-0.5c2-0.4,4-1.3,6-1.2s4,1,6,1.5
	c2,0.4,4,0.2,6,0.5c2,0.3,4,1.1,6,0.4s4-2.7,6-3.6c2-1,4-0.9,6-1.6c2-0.7,4-2.1,6-2.7s4-0.2,6,0.9c2,1.1,4,3,6,4.3s4,2.1,6,2.7
	c2,0.6,4,1,6,1c2,0,4-0.2,6-0.3s4,0.2,6,0.2c2,0,4-0.2,6-0.2c2-0.1,4-0.1,6,0c2,0.1,4,0.2,6,0.2c2,0,4-0.2,6-0.2c2,0,4,0,6,0
	c2,0,4-0.1,6,0c2,0.1,4,0.3,6,0.5c2,0.2,4,0.2,6-0.6c2-0.9,4-2.7,6-4.7c2-2,4-4.3,6-4.2c2,0.1,4,2.6,6,3.2c2,0.6,4-0.6,6-0.3
	c2,0.3,4,2.1,6,2.7c2,0.6,4,0,6-0.2c2-0.3,4-0.3,6-1c2-0.7,4-2.2,6-3.1c2-0.8,4-1,6-0.3c2,0.7,4,2.4,6,2.3c2-0.1,4-2.1,6-2.7
	c2-0.6,4,0.1,6,0.3c2,0.2,4,0,6-0.3c2-0.3,4-0.7,6-0.9c2-0.2,4-0.1,6,1.5c2,1.5,4,4.5,6,6.2c2,1.6,4,1.9,6,1.9c2,0.1,4-0.1,6,0
	c2,0,4,0.2,6.5,0.2c10.6,0.1,21.1,0,31.6-0.2c2,0,4,0.1,6,0.2c2,0.1,4,0.2,6,0c2-0.2,4-0.7,6-1.1c2-0.4,4-0.7,6-0.5
	c2,0.2,4,0.9,6,0.9c2,0.1,4-0.4,6-0.3c2,0.1,4,0.8,6,1.1c2,0.3,4,0.2,6-0.5c2-0.7,4-2,6-2.5c2-0.5,4-0.2,6-0.5c2-0.3,4-1.1,6-1.9
	c2-0.7,4-1.4,6-1.5c2-0.2,4,0.1,6,1.4c2,1.3,4,3.6,6,4.5c2,0.9,4,0.5,6-1c2-1.5,4-4.2,6-4.2c2,0,4,2.7,6,2.8c2,0.1,4-2.3,6-2.1
	c2,0.2,4,3,6,4.3c2,1.3,4,1,6,0.8c2-0.1,4-0.1,6,0c2,0.1,4,0.2,6,0.2c2,0,4-0.1,6-0.2c2-0.1,4-0.1,6-0.1c2,0,4,0,6,0.2
	c2,0.1,4,0.3,6,0.3c2,0,4-0.3,6-0.2c2,0,4,0.3,6,0.3c2,0,4-0.1,6-0.1c2,0,4,0.2,6,0.2c2,0,4-0.3,6-0.4c2-0.2,4-0.2,6-0.2
	c2,0,4,0,6,0.1c2,0.1,4,0.3,6,0.3c2,0,4-0.2,6-0.3c2-0.1,4,0,6,0c2,0.1,4,0.2,6,0.2s4-0.2,6-0.1s4,0.3,6,0.4c2,0,4-0.1,6-0.1
	c2,0,4,0.2,6,0.2c2,0,4-0.2,6-0.3c2-0.1,4-0.1,6-0.1s4,0,6,0s4,0.1,6,0.1c2,0,4-0.1,6-0.1c2,0,4,0,6,0.1c2,0.1,4,0.2,6.5,0.3
	c2.5,0,5.5-0.1,11.5,0.4"/>
<path class="st0" d="M0,507.7c0,0,3-0.5,5.5-0.7s4.5-0.2,6.5-0.2c2,0,4,0,6,0.2s4,0.3,6,0.3s4-0.1,6-0.5c2-0.3,4-0.9,6-1.2
	c2-0.3,4-0.4,6-0.3c2,0.2,4,0.7,6,1.1s4,0.9,6,0.4c2-0.4,4-1.8,6-2.4c2-0.7,4-0.7,6-0.2c2,0.5,4,1.5,6,1.4s4-1.3,6-1.2
	c2,0.1,4,1.5,6,1.4c2-0.1,4-1.7,6-2.7s4-1.3,6-2c2-0.7,4-1.7,6-2.4s4-1.1,6-0.7c2,0.4,4,1.6,6,1.8c2,0.2,4-0.6,6-1.1
	c2-0.5,4-0.7,6,0.9c2,1.5,4,4.8,6,6.3c2,1.6,4,1.4,6,1.3c2-0.2,4-0.3,6-0.3c2,0,4,0.1,6,0.2c2,0,4-0.1,6-0.2c2-0.1,4-0.1,6,0
	c2,0.1,4,0.4,6,0.5c2,0.1,4,0,6-0.2c2-0.1,4-0.3,6-0.4s4-0.1,6,0.1c2,0.2,4,0.5,6-1.5c2-2,4-6.4,6-8.3s4-1.3,6,0.9
	c2,2.2,4,5.9,6,6.4c2,0.5,4-2.4,6-3.5c2-1.2,4-0.7,6,0c2,0.6,4,1.3,6,2.1c2,0.7,4,1.5,6,1.5c2,0,4-0.8,6-1.3s4-0.9,6-0.5
	c2,0.4,4,1.5,6,0.8c2-0.7,4-3.3,6-2.9c2,0.4,4,3.8,6,5.5c2,1.7,4,1.7,6,0.1c2-1.6,4-4.9,6-5.1c2-0.2,4,2.6,6,2.6c2,0,4-2.9,6-2.8
	c2,0,4,3,6,4.6c2,1.6,4,1.9,6,2c2,0.1,4-0.1,6.5-0.3c12.3-0.9,25.3-0.8,37.7-0.1c2,0.1,4,0.3,6,0c2-0.3,4-0.9,6-1.3
	c2-0.4,4-0.5,6-0.6c2-0.1,4-0.3,6-0.4c2-0.1,4-0.2,6,0c2,0.3,4,1,6,1.1c2,0.1,4-0.4,6-1c2-0.6,4-1.2,6-1.6c2-0.4,4-0.5,6-1.5
	c2-1,4-2.7,6-2.7c2,0.1,4,2,6,2.6c2,0.6,4-0.1,6,0.1c2,0.2,4,1.3,6,1c2-0.3,4-1.9,6-1.7c2,0.2,4,2.2,6,3.7c2,1.4,4,2.2,6,1.4
	c2-0.9,4-3.5,6-3.5c2,0,4,2.6,6,3.7c2,1.2,4,0.9,6,0.9c2,0,4,0.1,6,0.1c2,0,4,0,6,0c2,0,4-0.1,6-0.1c2,0,4-0.1,6-0.1
	c2,0,4-0.1,6-0.1c2,0,4,0.1,6,0.1c2,0.1,4,0.1,6,0.2c2,0.1,4,0.2,6,0.1c2-0.1,4-0.3,6-0.3c2,0,4,0.3,6,0.3c2,0,4-0.2,6-0.2
	s4,0.1,6,0.1s4,0,6-0.1c2-0.1,4-0.2,6-0.2c2,0,4,0,6,0c2,0,4-0.1,6-0.1s4,0.1,6,0.1c2,0,4,0.1,6,0.1s4,0.2,6,0.2c2-0.1,4-0.4,6-0.3
	c2,0,4,0.3,6,0.4c2,0.1,4,0,6,0c2-0.1,4-0.1,6-0.2s4-0.2,6-0.3c2,0,4,0,6,0.1c2,0.1,4,0.1,6,0.2c2,0.1,4,0.3,6,0.3
	c2,0,4-0.1,6.5-0.3c2.5-0.2,5.5-0.5,11.5,0.4"/>
<path class="st0" d="M0,494.9c0,0,3-0.5,5.5-0.7C8,494,10,494,12,494c2,0,4,0,6,0.1s4,0.3,6,0.4s4-0.2,6-0.1c2,0,4,0.4,6,0.5
	c2,0.1,4,0.1,6-0.2c2-0.3,4-0.8,6-0.8s4,0.6,6,0.3c2-0.3,4-1.4,6-2s4-0.6,6,0c2,0.6,4,1.7,6,1.7c2-0.1,4-1.4,6-1.8
	c2-0.5,4-0.2,6-0.4c2-0.2,4-1,6-0.9s4,0.9,6,0.6c2-0.3,4-1.7,6-2.6c2-0.9,4-1.2,6-1.3c2-0.2,4-0.2,6-0.3c2-0.1,4-0.4,6-0.9
	c2-0.5,4-1.2,6,0.2c2,1.4,4,4.9,6,6.6c2,1.7,4,1.6,6,1.4c2-0.1,4-0.3,6-0.3c2-0.1,4-0.1,6,0c2,0,4,0.1,6,0.2c2,0.1,4,0.1,6,0.2
	c2,0.1,4,0.2,6,0.2c2,0,4-0.1,6-0.2c2-0.1,4-0.1,6-0.2s4-0.2,6-0.1c2,0.1,4,0.4,6-0.7c2-1.1,4-3.7,6-5.7c2-2,4-3.3,6-2.8
	c2,0.5,4,2.8,6,3.4c2,0.6,4-0.7,6-2c2-1.3,4-2.8,6-3.1c2-0.3,4,0.6,6,1.9c2,1.3,4,3.1,6,3.1c2,0,4-1.8,6-2.8s4-1.1,6-1.2
	c2,0,4,0,6,0c2,0,4,0,6,0.3s4,1,6,1.5c2,0.5,4,0.7,6,1.8c2,1,4,2.8,6,3.3s4-0.3,6-0.8c2-0.6,4-0.9,6-0.3c2,0.6,4,2.3,6,3.1
	s4,0.9,6,0.9c2,0.1,4,0.2,6.5,0.1c12.5-0.3,25.1,0,37.6,0.2c2,0,4-0.1,6-0.1c2,0,4,0,6,0s4-0.1,6-0.5c2-0.4,4-1,6-0.9
	c2,0.1,4,1,6,1.2c2,0.2,4-0.2,6-0.8c2-0.6,4-1.3,6-1.8c2-0.6,4-1,6-0.8c2,0.2,4,0.9,6,0.2c2-0.7,4-3,6-4.1c2-1.1,4-1.1,6,0.2
	c2,1.3,4,4,6,4.1c2,0.1,4-2.3,6-3.4c2-1.1,4-0.8,6-0.2c2,0.6,4,1.6,6,2.3c2,0.7,4,1.1,6,1.7c2,0.6,4,1.4,6,2c2,0.6,4,1,6,1
	c2,0,4-0.3,6-0.4c2-0.1,4-0.1,6-0.1c2,0,4-0.1,6,0c2,0.1,4,0.3,6,0.3c2,0,4-0.2,6-0.2c2,0,4,0.3,6,0.3c2,0,4-0.1,6-0.3
	c2-0.1,4-0.2,6-0.3c2-0.1,4-0.1,6,0c2,0,4,0.1,6,0.3c2,0.1,4,0.3,6,0.3c2,0,4-0.2,6-0.4s4-0.1,6-0.1c2,0,4,0.2,6,0.2
	c2,0,4-0.1,6-0.1c2,0,4,0.1,6,0.1c2,0,4-0.1,6-0.1s4,0,6,0s4-0.1,6-0.1s4,0.3,6,0.3c2,0,4-0.3,6-0.3c2,0,4,0.3,6,0.4
	c2,0.1,4,0.1,6,0s4-0.1,6-0.1c2-0.1,4-0.2,6-0.3c2-0.1,4-0.1,6-0.1c2,0,4,0.1,6,0.3c2,0.1,4,0.3,6,0.4c2,0,4-0.1,6.5-0.2
	c2.5-0.1,5.5-0.2,11.5-0.6"/>
<path class="st0" d="M0,482.1c0,0,3-0.3,5.5-0.4c2.5-0.1,4.5,0,6.5,0s4-0.1,6-0.1s4,0,6-0.1c2,0,4-0.1,6-0.4s4-0.8,6-1.1
	c2-0.3,4-0.5,6-0.6c2-0.1,4-0.1,6,0.3c2,0.5,4,1.4,6,1.7c2,0.3,4-0.2,6-0.4s4,0,6,0.2c2,0.2,4,0.5,6,0.1s4-1.5,6-2.2
	c2-0.6,4-0.8,6-0.3c2,0.6,4,1.9,6,1.9s4-1,6-1.7c2-0.6,4-0.7,6-1.8s4-3.1,6-4.3c2-1.2,4-1.5,6-1.5c2,0,4,0.3,6,0.4
	c2,0.1,4,0.1,6,1.8c2,1.6,4,4.9,6,6.4c2,1.6,4,1.4,6,1.4s4,0,6-0.1c2-0.1,4-0.3,6-0.4c2-0.1,4,0,6,0c2,0,4,0,6,0c2,0,4,0,6,0.1
	c2,0.1,4,0.2,6,0.3c2,0.1,4,0,6-0.1c2-0.1,4-0.2,6-0.1c2,0.1,4,0.4,6-1.5c2-1.9,4-6.1,6-7.3c2-1.2,4,0.6,6,1.9c2,1.3,4,2.1,6,1
	c2-1.1,4-4.1,6-5.5c2-1.5,4-1.5,6-0.6c2,0.9,4,2.6,6,3.2c2,0.7,4,0.2,6,1.1c2,0.8,4,2.9,6,3.9s4,1,6,0.7c2-0.4,4-1.1,6-1.5
	c2-0.4,4-0.4,6-0.5s4-0.5,6,0.1c2,0.6,4,2,6,1.7c2-0.3,4-2.3,6-3.7c2-1.3,4-2,6-2.3c2-0.3,4-0.2,6,1.4c2,1.6,4,4.7,6,6.4s4,2,6,2.1
	c2,0.1,4,0.1,6.5-0.1c10.3-0.9,21.3-0.6,31.6-0.2c2,0.1,4,0.1,6,0c2-0.1,4-0.2,6-0.2c2,0,4,0.1,6,0.1c2-0.1,4-0.4,6-0.7
	c2-0.3,4-0.5,6-0.6c2-0.1,4-0.1,6-0.1c2-0.1,4-0.2,6-0.6c2-0.3,4-0.9,6-0.8c2,0.1,4,0.8,6,0.8c2,0,4-0.8,6-2.1c2-1.3,4-3.1,6-4.2
	c2-1.1,4-1.3,6-1.2c2,0.1,4,0.6,6,0.6c2,0,4-0.5,6-0.2c2,0.2,4,1.2,6,1.6c2,0.3,4,0.1,6,0c2-0.1,4-0.1,6,0.5c2,0.6,4,1.9,6,3.3
	c2,1.4,4,3,6,3.6c2,0.6,4,0.3,6,0.2s4-0.1,6,0c2,0.1,4,0.2,6,0.2c2,0,4,0,6,0c2,0,4-0.1,6,0c2,0.1,4,0.3,6,0.3c2,0.1,4,0,6-0.1
	c2-0.1,4-0.4,6-0.5c2-0.1,4-0.1,6-0.1c2,0,4,0.2,6,0.3c2,0.2,4,0.4,6,0.3c2,0,4-0.3,6-0.4c2-0.2,4-0.2,6-0.2c2,0,4,0.2,6,0.3
	c2,0.1,4,0.2,6,0.1c2,0,4-0.1,6-0.1c2,0,4,0.2,6,0.2s4-0.2,6-0.3s4-0.2,6-0.3c2-0.1,4-0.1,6-0.1c2,0,4,0,6,0.1c2,0.2,4,0.5,6,0.6
	c2,0.1,4,0,6,0c2-0.1,4-0.1,6-0.2s4-0.3,6-0.3s4,0.2,6,0.2c2,0,4-0.2,6-0.1c2,0.1,4,0.4,6,0.5c2,0.1,4,0.1,6.5-0.1
	c2.5-0.2,5.5-0.6,11.5,0.2"/>
<path class="st0" d="M0,469.3c0,0,3-0.4,5.5-0.6s4.5-0.3,6.5-0.2c2,0,4,0.2,6,0.2c2,0,4-0.1,6-0.1c2,0,4,0,6-0.2c2-0.2,4-0.7,6-0.6
	c2,0.1,4,0.6,6,0.6c2,0,4-0.6,6-1.1c2-0.5,4-1,6-1c2-0.1,4,0.2,6,0.4c2,0.2,4,0.3,6,0.4c2,0.1,4,0.2,6-0.2c2-0.4,4-1.3,6-1.4
	s4,0.7,6,0.1c2-0.5,4-2.3,6-3c2-0.7,4-0.4,6-0.6c2-0.1,4-0.7,6,0c2,0.7,4,2.8,6,3.4s4-0.1,6-1.4c2-1.3,4-3.1,6-3.4
	c2-0.3,4,0.8,6,2.5c2,1.7,4,4,6,5c2,1.1,4,0.9,6,0.9s4,0,6-0.1c2-0.1,4-0.2,6-0.3c2-0.1,4-0.1,6-0.1c2,0,4,0,6,0c2,0,4,0,6,0.1
	c2,0.1,4,0.2,6,0.2c2,0,4-0.2,6-0.3s4-0.1,6,0c2,0,4,0.1,6,0.3c2,0.2,4,0.4,6,0.3s4-0.4,6-0.4c2-0.1,4,0.1,6,0.2c2,0.1,4,0,6,0
	c2-0.1,4-0.2,6-0.2c2,0,4,0,6,0c2,0,4,0,6,0c2,0.1,4,0.3,6,0.3c2,0,4-0.3,6-0.4c2-0.1,4-0.1,6-0.1c2,0,4,0.1,6,0.3
	c2,0.2,4,0.4,6,0.4c2,0.1,4,0,6-0.1c2-0.1,4-0.1,6-0.1s4,0,6-0.1c2,0,4-0.1,6-0.2c2-0.1,4-0.2,6-0.2c2,0,4,0,6,0.1
	c2,0.1,4,0.3,6.5,0.3c8.5-0.2,17.1-0.3,25.6-0.4c2,0,4,0,6,0.1c2,0.1,4,0.3,6,0.4c2,0.1,4,0.1,6,0c2-0.1,4-0.3,6-0.8s4-1,6-1
	c2,0,4,0.5,6,0.4c2-0.1,4-0.9,6-0.9c2,0,4,0.6,6,0.8c2,0.1,4-0.3,6-0.8c2-0.6,4-1.3,6-0.9c2,0.4,4,1.8,6,1.1c2-0.7,4-3.7,6-4.4
	c2-0.7,4,0.7,6,1.7c2,0.9,4,1.3,6,0.4c2-1,4-3.2,6-4.1c2-0.8,4-0.2,6-0.1c2,0.1,4-0.3,6-0.4c2-0.1,4,0.1,6,0.9c2,0.8,4,2.3,6,3.8
	c2,1.5,4,3.1,6,3.8c2,0.7,4,0.6,6,0.4c2-0.2,4-0.3,6-0.4c2-0.1,4-0.1,6,0c2,0.1,4,0.2,6,0.2c2,0,4-0.1,6-0.1c2,0,4,0,6,0
	c2,0.1,4,0.2,6,0.2c2,0,4-0.2,6-0.3c2-0.1,4-0.1,6-0.1c2,0,4,0,6,0.1c2,0.2,4,0.5,6,0.5c2,0,4-0.3,6-0.5c2-0.2,4-0.2,6-0.1
	c2,0,4,0.1,6,0.1c2,0,4,0,6,0.1c2,0.1,4,0.2,6,0.2c2,0,4-0.1,6-0.2s4,0.1,6,0c2,0,4-0.1,6,0s4,0.3,6,0.4c2,0,4-0.1,6-0.1
	c2,0,4,0.2,6,0.2c2,0,4-0.3,6-0.5s4-0.2,6-0.1s4,0.2,6,0.3s4-0.1,6-0.1c2,0,4,0.1,6,0.1c2,0,4-0.1,6-0.1c2,0,4,0.1,6.5,0
	c2.5,0,5.5-0.2,11.5,0.6"/>
<path class="st0" d="M0,456.5c0,0,3-0.5,5.5-0.7c2.5-0.2,4.5-0.2,6.5-0.2s4,0,6,0s4,0.2,6,0.3s4,0.2,6,0c2-0.2,4-0.7,6-0.8
	c2-0.1,4,0.1,6,0.3c2,0.2,4,0.3,6,0s4-1.3,6-1.8c2-0.5,4-0.7,6-0.3c2,0.4,4,1.3,6,1.5c2,0.2,4-0.3,6-0.7s4-0.7,6-1.6
	c2-1,4-2.6,6-3.7c2-1.1,4-1.7,6-0.8c2,0.8,4,3,6,3.9c2,0.9,4,0.5,6,0.9c2,0.4,4,1.6,6,1.1s4-2.7,6-2.7c2,0,4,2.2,6,3.3s4,1.1,6,1.3
	c2,0.2,4,0.6,6,0.6c2,0,4-0.3,6-0.4c2-0.1,4-0.1,6,0c2,0.1,4,0.2,6,0.2c2,0,4-0.1,6-0.1c2,0,4,0,6,0.1c2,0.1,4,0.3,6,0.4
	c2,0.1,4,0,6-0.1c2-0.1,4-0.4,6-0.5c2-0.1,4-0.1,6-0.1c2,0,4,0.1,6,0.3c2,0.1,4,0.3,6,0.3s4-0.3,6-0.4c2-0.1,4-0.1,6-0.1
	c2,0,4,0,6,0c2,0,4,0.1,6,0.1c2,0.1,4,0.1,6,0.1c2,0,4-0.1,6,0c2,0.1,4,0.3,6,0.3c2,0,4-0.3,6-0.2c2,0,4,0.3,6,0.3c2,0,4-0.1,6-0.1
	s4,0.2,6,0.2c2,0.1,4,0,6-0.1c2-0.1,4-0.3,6-0.4c2-0.1,4-0.2,6-0.1c2,0.1,4,0.3,6,0.3c2,0.1,4,0,6-0.1c2-0.1,4-0.2,6-0.1
	c2,0,4,0.2,6.5,0.1c8.5-0.2,17.1-0.4,25.6-0.4c2,0,4,0,6,0.1c2,0,4,0.1,6,0.1c2,0,4,0,6,0c2,0,4,0.2,6,0c2-0.2,4-0.8,6-1.2
	c2-0.4,4-0.8,6-1c2-0.2,4-0.3,6-0.3c2,0,4-0.1,6-0.2c2-0.2,4-0.4,6,0.1c2,0.6,4,2,6,2.1c2,0.1,4-1.1,6-1.5c2-0.4,4,0,6-1.1
	c2-1,4-3.5,6-4.8c2-1.4,4-1.6,6-0.8c2,0.8,4,2.8,6,2.8c2,0,4-2,6-2c2,0,4,2,6,3.5c2,1.6,4,2.8,6,2.4c2-0.3,4-2.2,6-2
	c2,0.2,4,2.5,6,3.5c2,1,4,0.7,6,0.5s4-0.1,6-0.1c2,0,4,0,6,0.1c2,0.1,4,0.3,6,0.3c2,0,4-0.1,6-0.2c2-0.1,4-0.2,6-0.1
	c2,0.1,4,0.3,6,0.3c2,0,4-0.3,6-0.4c2-0.1,4-0.1,6-0.1c2,0,4,0.1,6,0.3c2,0.1,4,0.3,6,0.3s4-0.3,6-0.4c2,0,4,0.1,6,0.2
	c2,0,4-0.1,6-0.2c2,0,4,0,6,0.1c2,0,4,0,6,0c2,0,4-0.1,6,0s4,0.3,6,0.3s4-0.1,6-0.1s4,0.2,6,0.1c2-0.1,4-0.4,6-0.3c2,0,4,0.3,6,0.3
	c2,0,4-0.2,6-0.3s4-0.1,6-0.1s4,0,6,0s4,0.1,6,0.1c2,0,4-0.1,6-0.1c2,0,4,0,6,0.1c2,0.1,4,0.3,6.5,0.3c2.5,0,5.5-0.2,11.5,0.3"/>
<path class="st0" d="M0,443.7c0,0,3-0.4,5.5-0.6s4.5-0.3,6.5-0.3c2,0,4,0,6,0c2,0,4,0.1,6,0.2s4,0.3,6,0.4c2,0.1,4,0.2,6,0
	c2-0.2,4-0.8,6-1.3c2-0.5,4-0.8,6-1.1c2-0.3,4-0.5,6-0.6c2-0.1,4-0.1,6,0.4s4,1.6,6,2c2,0.4,4,0.2,6-0.4c2-0.6,4-1.4,6-1.7
	s4,0.1,6,0.5c2,0.4,4,0.8,6-0.1c2-0.9,4-3.1,6-4.1c2-1.1,4-1.1,6,0.2c2,1.3,4,3.9,6,5s4,0.7,6-1c2-1.7,4-4.7,6-5.3s4,1.2,6,2.9
	c2,1.7,4,3.2,6,4c2,0.7,4,0.6,6,0.5c2-0.1,4-0.3,6-0.4c2-0.1,4,0,6,0c2,0.1,4,0.2,6,0.2c2,0,4,0,6,0c2,0,4-0.1,6-0.1c2,0,4,0.1,6,0
	c2,0,4-0.1,6-0.2s4-0.1,6-0.1c2,0,4,0,6,0.1c2,0.2,4,0.5,6,0.6c2,0.1,4,0,6-0.1c2-0.1,4-0.1,6-0.2c2-0.1,4-0.3,6-0.4c2-0.1,4,0,6,0
	c2,0.1,4,0.1,6,0.2c2,0.1,4,0.3,6,0.4c2,0.1,4,0,6-0.1c2-0.1,4-0.4,6-0.4c2,0,4,0.3,6,0.3c2,0,4-0.1,6-0.1s4,0.2,6,0.3
	c2,0.1,4,0,6-0.1c2-0.1,4-0.3,6-0.4s4,0.1,6,0.2c2,0.1,4,0,6-0.1c2-0.1,4-0.2,6-0.1s4,0.4,6,0.5c2,0.1,4-0.1,6.5-0.3
	c8.5-0.6,17.1,0.2,25.6,0.1c2,0,4-0.2,6-0.3c2-0.1,4,0,6,0.1c2,0.1,4,0.3,6,0.1c2-0.2,4-0.7,6-0.9s4-0.1,6-0.3c2-0.2,4-0.8,6-0.5
	c2,0.2,4,1.3,6,1.8c2,0.5,4,0.5,6,0c2-0.5,4-1.6,6-2c2-0.3,4,0.1,6,0.4c2,0.2,4,0.3,6-0.3c2-0.7,4-2,6-3c2-1,4-1.6,6-2.1
	c2-0.4,4-0.7,6-0.8c2-0.1,4-0.1,6-0.5c2-0.3,4-1,6-1.2c2-0.2,4,0,6,1c2,1,4,2.6,6,2.5c2-0.1,4-2,6-1.2c2,0.8,4,4.3,6,5.9
	c2,1.6,4,1.3,6,1.2s4,0.2,6,0.2c2,0,4-0.2,6-0.2c2-0.1,4-0.1,6,0c2,0,4,0.1,6,0.1c2,0,4-0.1,6-0.1c2,0,4,0.1,6,0.1
	c2,0.1,4,0.1,6,0.2c2,0.1,4,0.2,6,0.2c2,0,4-0.2,6-0.2c2,0,4,0.2,6,0.2s4-0.3,6-0.4c2-0.2,4-0.2,6-0.3s4,0,6,0c2,0,4,0.1,6,0.1
	c2,0,4,0,6,0c2,0,4,0,6,0.1s4,0.3,6,0.4s4-0.1,6-0.2c2-0.1,4-0.3,6-0.3c2,0,4,0.1,6,0.2c2,0.2,4,0.4,6,0.3c2,0,4-0.3,6-0.3
	c2-0.1,4,0.1,6,0.1c2,0.1,4,0,6,0s4-0.2,6-0.3c2-0.1,4-0.1,6-0.1c2,0,4,0,6,0.2c2,0.1,4,0.3,6.5,0.3c2.5,0,5.5-0.2,11.5-0.6"/>
<path class="st0" d="M0,430.9c0,0,3-0.4,5.5-0.6c2.5-0.2,4.5-0.3,6.5-0.3c2,0,4-0.1,6,0s4,0.3,6,0.4c2,0,4-0.1,6-0.4s4-0.7,6-0.9
	c2-0.2,4-0.2,6-0.2c2-0.1,4-0.3,6-0.3s4,0.1,6-0.1c2-0.2,4-0.8,6-1s4,0.1,6,0c2-0.1,4-0.7,6-0.4s4,1.6,6,0.7c2-0.9,4-4,6-4.6
	c2-0.6,4,1.2,6,1.8s4-0.1,6-0.3c2-0.2,4,0.2,6,0s4-0.8,6,0s4,2.9,6,3.1c2,0.2,4-1.7,6-1.9s4,1.3,6,2.4c2,1.1,4,1.9,6,2.2
	c2,0.3,4,0.1,6-0.1c2-0.1,4-0.2,6-0.1c2,0,4,0.2,6,0.3c2,0.1,4,0.2,6,0.1c2-0.1,4-0.3,6-0.2c2,0,4,0.3,6,0.4c2,0.1,4,0,6-0.1
	c2-0.1,4-0.1,6-0.2s4-0.2,6-0.2c2,0,4,0.1,6,0.3c2,0.2,4,0.4,6,0.4c2,0,4-0.1,6-0.2c2-0.2,4-0.3,6-0.4c2-0.1,4-0.1,6-0.1
	c2,0,4,0.1,6,0.1c2,0,4,0,6,0.1c2,0.1,4,0.4,6,0.5c2,0.1,4-0.1,6-0.3c2-0.1,4-0.2,6-0.2c2,0.1,4,0.3,6,0.4c2,0,4-0.1,6-0.2
	s4,0.2,6,0.1c2,0,4-0.3,6-0.3c2,0,4,0.1,6,0.2s4,0.1,6,0.1c2,0,4,0.1,6,0c2,0,4-0.1,6,0c2,0.1,4,0.2,6,0.2c2,0,4-0.2,6.5-0.3
	c8.4-0.3,17.2-0.7,25.6-0.4c2,0.1,4,0.2,6,0.3c2,0.1,4,0.2,6,0.2c2,0,4,0,6-0.3c2-0.3,4-1,6-0.9c2,0.1,4,0.8,6,1.1c2,0.3,4,0,6,0
	c2,0,4,0.2,6-0.3c2-0.5,4-1.9,6-1.9s4,1.3,6,1.3c2,0,4-1.4,6-2.2c2-0.8,4-1,6-0.7c2,0.3,4,1.1,6,1.3c2,0.2,4-0.2,6-0.8
	c2-0.6,4-1.3,6-1.1c2,0.2,4,1.3,6,0.8c2-0.6,4-2.8,6-4.2c2-1.3,4-1.8,6-1.4c2,0.4,4,1.6,6,2.1c2,0.5,4,0.2,6,1.3c2,1.1,4,3.7,6,4.9
	c2,1.2,4,1.1,6,1s4,0,6-0.1c2-0.1,4-0.2,6-0.3c2,0,4,0,6,0.1c2,0,4,0,6,0c2,0,4-0.1,6-0.1c2,0,4,0.2,6,0.2c2,0,4-0.2,6-0.1
	c2,0,4,0.3,6,0.4c2,0,4-0.1,6-0.1c2,0,4,0.2,6,0.3c2,0,4-0.1,6-0.2c2-0.1,4-0.3,6-0.4s4-0.2,6-0.1c2,0,4,0.2,6,0.2c2,0.1,4,0,6,0.1
	c2,0.1,4,0.3,6,0.3s4-0.1,6-0.2s4-0.3,6-0.3s4,0.3,6,0.4c2,0,4-0.1,6-0.2c2,0,4,0.2,6,0.1c2,0,4-0.2,6-0.3c2-0.1,4-0.1,6-0.1
	s4,0,6,0c2,0,4,0.1,6,0.1c2,0,4-0.1,6-0.1c2,0,4,0,6,0.1c2,0.1,4,0.3,6.5,0.3c2.5-0.1,5.5-0.5,11.5,0.4"/>
<path class="st0" d="M0,418.1c0,0,3-0.4,5.5-0.6c2.5-0.2,4.5-0.3,6.5-0.3s4,0,6,0s4,0.2,6,0.3s4,0.2,6,0c2-0.1,4-0.5,6-0.8
	c2-0.2,4-0.4,6-0.6c2-0.2,4-0.6,6-0.9c2-0.3,4-0.5,6-0.2c2,0.3,4,0.9,6,0.8c2-0.1,4-1.1,6-1.5c2-0.5,4-0.5,6-0.6s4-0.5,6-1.2
	c2-0.7,4-1.9,6-2.3c2-0.4,4-0.2,6,0.7c2,0.8,4,2.2,6,1.7c2-0.5,4-2.8,6-3.3c2-0.5,4,0.7,6,0.9s4-0.8,6-1.3c2-0.5,4-0.5,6-0.6
	c2-0.1,4-0.2,6,1.4c2,1.6,4,5,6,6.6c2,1.6,4,1.3,6,1.2s4-0.2,6-0.2c2,0,4-0.1,6,0c2,0.1,4,0.3,6,0.4c2,0.1,4,0.1,6,0.1
	c2,0,4,0.1,6,0.1c2,0,4-0.2,6-0.3c2-0.1,4,0,6-0.1c2-0.1,4-0.2,6-0.2c2,0,4,0.1,6,0.2c2,0.1,4,0.3,6,0.4c2,0.1,4,0,6-0.1
	c2-0.1,4-0.3,6-0.3c2-0.1,4-0.1,6-0.1c2,0,4,0,6,0c2,0,4,0.1,6,0.1c2,0,4-0.1,6,0c2,0.1,4,0.3,6,0.3s4-0.1,6-0.2c2-0.1,4-0.3,6-0.3
	c2-0.1,4-0.1,6,0.1s4,0.4,6,0.5c2,0,4-0.2,6-0.2c2,0,4,0.1,6,0.1s4-0.1,6-0.2c2-0.1,4-0.1,6,0c2,0.1,4,0.2,6,0.2c2,0,4-0.1,6-0.1
	c2,0,4,0.1,6.5,0.1c8.5-0.1,17.1-0.1,25.6-0.1c2,0,4,0.2,6,0.2c2,0.1,4,0.1,6,0.1c2,0,4,0.1,6,0.1c2,0,4-0.1,6-0.5
	c2-0.4,4-1.2,6-1.2c2-0.1,4,0.6,6,0.7c2,0.1,4-0.3,6-0.8c2-0.5,4-1.1,6-1.5c2-0.4,4-0.5,6,0c2,0.5,4,1.6,6,2.2c2,0.6,4,0.7,6-0.9
	c2-1.6,4-4.9,6-5.8c2-0.9,4,0.7,6,1.5c2,0.8,4,0.8,6,1.2c2,0.4,4,1.1,6,0.9c2-0.2,4-1.2,6-1.4c2-0.2,4,0.5,6,0.2c2-0.3,4-1.5,6-2
	c2-0.5,4-0.2,6,1.2c2,1.4,4,4,6,5.1c2,1.1,4,0.8,6,0.8s4,0.2,6,0.2c2,0.1,4,0,6,0c2,0,4,0.1,6,0.1c2,0,4,0,6-0.1c2-0.1,4-0.2,6-0.2
	c2,0,4,0.2,6,0.2c2,0,4-0.3,6-0.4c2-0.1,4-0.1,6-0.1c2,0,4,0.1,6,0.3c2,0.1,4,0.3,6,0.3s4,0,6-0.1c2-0.1,4-0.3,6-0.3
	c2,0,4,0.1,6,0.2c2,0.1,4,0.1,6,0.1c2,0,4,0,6,0c2,0,4,0.2,6,0.2s4-0.1,6-0.2s4-0.3,6-0.4c2-0.1,4-0.1,6-0.1c2,0,4,0,6,0.1
	c2,0.1,4,0.4,6,0.4c2,0,4-0.3,6-0.4s4-0.1,6-0.2c2,0,4,0,6,0c2,0.1,4,0.2,6,0.2c2,0.1,4,0.1,6,0.2c2,0.1,4,0.3,6,0.2
	c2,0,4-0.2,6.5-0.4c2.5-0.2,5.5-0.4,11.5,0.5"/>
</svg>
